<?xml version="1.0" standalone="no"?>
<!DOCTYPE svg PUBLIC "-//W3C//DTD SVG 1.1//EN" "http://www.w3.org/Graphics/SVG/1.1/DTD/svg11.dtd" >
<svg xmlns="http://www.w3.org/2000/svg" xmlns:xlink="http://www.w3.org/1999/xlink" version="1.1">
<metadata>
Created by FontForge 20170731 at Fri Aug 10 20:27:39 2018
 By Aleksey,,,
</metadata>
<defs>
<font id="EastIndiaCompanyC" horiz-adv-x="603" >
  <font-face 
    font-family="East India CompanyC"
    font-weight="400"
    font-stretch="normal"
    units-per-em="1000"
    panose-1="2 0 0 0 0 0 0 0 0 0"
    ascent="800"
    descent="-200"
    x-height="848"
    cap-height="848"
    bbox="0 -166 902 1039"
    underline-thickness="50"
    underline-position="-150"
    unicode-range="U+0020-2116"
  />
<missing-glyph horiz-adv-x="282" 
 />
    <glyph glyph-name=".notdef" horiz-adv-x="282" 
 />
    <glyph glyph-name=".null" horiz-adv-x="0" 
 />
    <glyph glyph-name="nonmarkingreturn" horiz-adv-x="333" 
 />
    <glyph glyph-name="space" unicode=" " horiz-adv-x="282" 
 />
    <glyph glyph-name="exclam" unicode="!" horiz-adv-x="200" 
d="M180 59q0 -29 -21.5 -47t-49.5 -18h-14q-28 0 -49.5 18t-21.5 47v40q0 29 21.5 47.5t49.5 18.5h14q28 0 49.5 -18.5t21.5 -47.5v-40zM180 568q0 -33 -5 -56t-9 -55l-29 -223h-75l-28 223q-4 32 -9 55t-5 56v226q0 29 22 48.5t51 19.5h14q29 0 51 -19.5t22 -48.5v-226z
" />
    <glyph glyph-name="quotedbl" unicode="&#x22;" horiz-adv-x="425" 
d="M212 784q0 -17 -6.5 -32t-14.5 -30l-99 -196h-72l35 267q5 31 28.5 50t53.5 19q35 0 55 -22t20 -56zM405 784q0 -17 -6.5 -32t-14.5 -30l-99 -196h-72l35 267q4 31 28 50t54 19q35 0 55 -22t20 -56z" />
    <glyph glyph-name="numbersign" unicode="#" horiz-adv-x="559" 
d="M271 848l-32 -229h132l32 229h98l-32 -229h70v-97h-83l-17 -126h100v-97h-113l-41 -299h-98l41 299h-132l-41 -299h-98l41 299h-78v97h91l17 126h-108v97h121l32 229h98zM341 396l17 126h-132l-17 -126h132z" />
    <glyph glyph-name="dollar" unicode="$" horiz-adv-x="414" 
d="M393 179q0 -63 -36 -98t-95 -46v194q0 11 -9 25q-7 11 -12 19v-366h-69v449l-110 133q-20 24 -31 48.5t-11 56.5v47q0 66 33.5 109.5t97.5 58.5v-193l6 -10l15 -19v301h69v-387l110 -136q28 -35 35.5 -65t6.5 -66v-55zM151 34q-57 10 -91 44t-34 94v110h125v-248z
M372 571h-110v236q53 -14 81.5 -49t28.5 -90v-97z" />
    <glyph glyph-name="percent" unicode="%" horiz-adv-x="647" 
d="M482 848l-245 -848h-72l246 848h71zM115 762q0 14 9.5 22t21.5 8t21.5 -7t9.5 -23v-275q0 -16 -9.5 -23t-21.5 -7t-21.5 8t-9.5 22v275zM20 511q0 -39 18.5 -64t46.5 -37.5t60.5 -12t60.5 13t46.5 38t18.5 62.5v227q0 37 -18.5 61.5t-46.5 36.5t-60.5 11.5t-60.5 -14
t-46.5 -39t-18.5 -64.5v-219zM475 362q0 14 9.5 22t21.5 8t21.5 -7t9.5 -23v-275q0 -16 -9.5 -23t-21.5 -7t-21.5 8t-9.5 22v275zM380 111q0 -39 18.5 -64t46.5 -37.5t60.5 -12t60.5 13t46.5 38t18.5 62.5v227q0 37 -18.5 61.5t-46.5 36.5t-60.5 11.5t-60.5 -14t-46.5 -39.5
t-18.5 -64v-219z" />
    <glyph glyph-name="ampersand" unicode="&#x26;" horiz-adv-x="576" 
d="M343 704q-3 32 -17 47t-29.5 14t-28 -17.5t-12.5 -46.5v-29q0 -19 5.5 -39t13.5 -37l118 -279v164h163v-69q-33 -1 -56 -24.5t-23 -56.5v-212q11 -23 27.5 -36.5t45.5 -13.5v-69h-206l-21 52q-15 -19 -32.5 -32t-36 -21.5t-36.5 -12t-32 -3.5q-39 0 -69.5 13t-52 36.5
t-33 55t-11.5 69.5v154q0 27 11.5 54t30 50t42 40t47.5 23l-13 33q-9 22 -18 42.5t-16 41t-11.5 42.5t-4.5 47q0 54 29.5 92t74 59t96 24.5t96 -12.5t74 -52.5t29.5 -93.5v-108h-144v111zM177 335v-154q0 -14 3 -29t10.5 -27t19 -20t28.5 -8q7 0 24 3t33 20l-108 269
q-11 -13 -10.5 -29.5t0.5 -24.5z" />
    <glyph glyph-name="quotesingle" unicode="'" horiz-adv-x="232" 
d="M212 784q0 -17 -6.5 -32t-14.5 -30l-99 -196h-72l35 267q5 31 28.5 50t53.5 19q35 0 55 -22t20 -56z" />
    <glyph glyph-name="parenleft" unicode="(" horiz-adv-x="276" 
d="M256 835q-27 -59 -46.5 -114.5t-32.5 -112t-19 -115t-6 -124.5q0 -106 18 -211t62 -202l22 -49h-101q-133 209 -133 462q0 127 33.5 243.5t102.5 222.5h100z" />
    <glyph glyph-name="parenright" unicode=")" horiz-adv-x="276" 
d="M256 369q0 -253 -133 -462h-101l22 49q44 97 62 202t18 211q0 66 -6 124.5t-19 115t-32.5 112t-46.5 114.5h100q69 -106 102.5 -222.5t33.5 -243.5z" />
    <glyph glyph-name="asterisk" unicode="*" horiz-adv-x="453" 
d="M201 629q-16 -11 -30.5 -23.5t-28.5 -26.5q-13 -13 -25 -26t-28 -23q-8 -5 -15 -7.5t-17 -2.5q-14 0 -25.5 8.5t-11.5 23.5q0 14 9 25.5t21 18.5q11 6 29 10.5l30 7.5q22 6 43 13t41 16zM265 473q0 -8 -2.5 -17.5t-7.5 -17.5t-12 -13t-17 -5t-17 5t-11.5 13t-7 17.5
t-2.5 17.5q0 17 5.5 34t10.5 33q11 41 14 80h17q2 -23 6 -44t10 -42q4 -14 9 -30.5t5 -30.5zM192 664q-20 10 -41 17t-42 13l-30 7.5t-29 10.5q-11 7 -20.5 19t-9.5 26t11 22.5t25 8.5q17 0 33 -10t28 -23t25 -26q27 -28 59 -50zM433 553q0 -15 -11 -23t-25 -8q-17 0 -33 8
q-11 6 -25.5 21t-23.5 25q-15 14 -30.5 28t-32.5 26l8 14q34 -16 73 -25q15 -5 35.5 -9t34.5 -12q11 -8 20.5 -19.5t9.5 -25.5zM265 835q0 -15 -4.5 -31t-9.5 -30q-5 -21 -9.5 -42t-6.5 -43h-17q-3 41 -15 78l-10 34t-5 34q0 8 2.5 17.5t7 17.5t11.5 13t17 5t17 -5t12 -13
t7.5 -17.5t2.5 -17.5zM433 755q0 -14 -9.5 -25.5t-20.5 -18.5q-13 -8 -31.5 -12t-32.5 -8q-20 -5 -39.5 -12t-38.5 -16l-9 15q17 12 33 26t30 28q10 10 24.5 25t25.5 21q8 4 16 6.5t16 2.5q15 0 25.5 -7.5t10.5 -24.5z" />
    <glyph glyph-name="plus" unicode="+" horiz-adv-x="535" 
d="M515 362h-185v-186h-125v186h-185v124h185v186h125v-186h185v-124z" />
    <glyph glyph-name="comma" unicode="," horiz-adv-x="231" 
d="M211 87q0 -35 -21 -62l-98 -118h-72l35 189q6 30 28.5 49.5t53.5 19.5q35 0 54.5 -22t19.5 -56z" />
    <glyph glyph-name="hyphen" unicode="-" horiz-adv-x="234" 
d="M214 329h-194v124h194v-124z" />
    <glyph glyph-name="period" unicode="." horiz-adv-x="196" 
d="M176 59q0 -29 -21.5 -47t-49.5 -18h-14q-28 0 -49.5 18t-21.5 47v40q0 29 21.5 47.5t49.5 18.5h14q28 0 49.5 -18.5t21.5 -47.5v-40z" />
    <glyph glyph-name="slash" unicode="/" horiz-adv-x="406" 
d="M386 848l-270 -930h-96l270 930h96z" />
    <glyph glyph-name="zero" unicode="0" horiz-adv-x="475" 
d="M186 130q0 -31 16 -46t35 -14t35 16.5t16 44.5v583q0 29 -16 44t-35 16t-35 -14t-16 -46v-583v-1zM30 674q0 62 30.5 102.5t77 61t100 20t100 -21t77 -61.5t30.5 -101v-504q0 -60 -30.5 -101t-77 -61.5t-100 -21t-100 20t-77 61t-30.5 102.5v504z" />
    <glyph glyph-name="one" unicode="1" horiz-adv-x="382" 
d="M362 0h-312v69q13 0 25.5 3t23 9.5t17 17t6.5 25.5v559q0 30 -18 37t-44 7h-40v69h34q15 0 34 4t37 11t34 16.5t27 20.5h107v-724q0 -30 21.5 -42.5t47.5 -12.5v-69z" />
    <glyph glyph-name="two" unicode="2" horiz-adv-x="471" 
d="M441 0h-274v83h108q29 0 46 11t26 29t11.5 40.5t2.5 45.5v49h80v-258zM239 862q39 0 77 -9t68 -28.5t48.5 -50.5t18.5 -76v-148q0 -44 -7 -72.5t-22 -49.5t-39 -39t-58 -41l-80 -55q-12 -8 -22.5 -15.5t-18 -16t-11.5 -20t-4 -27.5v-214h-159v208q0 36 12.5 59t39.5 46
l110 92q28 24 45.5 41t27 35.5t13 42t3.5 61.5v134q0 31 -13.5 45t-30 14t-30 -14t-13.5 -39v-146h-158v126q0 42 18 71t46.5 48t65 28t73.5 10z" />
    <glyph glyph-name="three" unicode="3" horiz-adv-x="505" 
d="M227 -6h-25q-35 0 -66.5 13.5t-55 36.5t-37 54t-13.5 66v108h160v-152q0 -17 10.5 -31t26.5 -19v-76zM475 177q0 -38 -14.5 -71.5t-40 -58t-59 -39t-71.5 -14.5h-42v76q17 5 27.5 19t10.5 31v229q0 19 -8.5 34t-22 25.5t-30.5 16t-35 5.5h-27v69h59q28 0 48 21.5t20 48.5
v168q0 17 -10 31.5t-27 19.5v73h36q34 0 63.5 -13t52 -35.5t35.5 -52t13 -63.5v-103q0 -42 -19.5 -78.5t-54.5 -59.5q44 -24 70 -67.5t26 -94.5v-117zM232 787q-16 -5 -25 -19.5t-9 -30.5v-141h-150v118q0 30 11.5 57t31.5 47t47 31.5t57 11.5h37v-74z" />
    <glyph glyph-name="four" unicode="4" horiz-adv-x="475" 
d="M452 250h-66v-126q0 -30 21.5 -42.5t47.5 -12.5v-69h-301v69q13 0 25.5 3t23 9.5t17 17t6.5 25.5v126h-206v97l243 501h123v-528h66v-70zM103 320h123v262l-123 -248v-14z" />
    <glyph glyph-name="five" unicode="5" horiz-adv-x="471" 
d="M451 848l-19 -254h-86q1 8 3 19.5t3.5 24t2.5 24t1 18.5q0 58 -30.5 80t-80.5 20l-43 -281q14 2 27 3.5t24 1.5q40 0 75.5 -13t61.5 -36.5t41.5 -57t15.5 -75.5v-145q0 -38 -13.5 -71t-37.5 -58t-56.5 -39.5t-70.5 -14.5h-77q-35 0 -66.5 13.5t-55 36.5t-37 54t-13.5 66
v115h160v-159q0 -18 10.5 -34.5t30.5 -16.5t32 16t12 35v232q0 18 -8 32.5t-20.5 24.5t-29 15.5t-33.5 5.5h-64t-64 -1l62 419h343z" />
    <glyph glyph-name="six" unicode="6" horiz-adv-x="489" 
d="M459 184q-2 -63 -34 -106t-80 -65t-103 -23t-102 19.5t-78.5 64t-31.5 110.5v469q0 65 32 109.5t79.5 68t103 24.5t103 -20.5t79.5 -66.5t32 -115v-75h-159v140q0 27 -15.5 43.5t-34.5 18.5t-34.5 -12.5t-15.5 -49.5v-596q0 -32 15.5 -45t34.5 -11t34.5 17t15.5 39v202
q0 22 -10.5 43t-35.5 21q-10 0 -18 -4t-15 -9v84q36 16 74 16q34 0 64 -12t52.5 -33.5t35 -51t12.5 -64.5v-130z" />
    <glyph glyph-name="seven" unicode="7" horiz-adv-x="457" 
d="M437 848l-213 -848h-167l206 779h-75q-17 0 -32.5 -7t-27 -18.5t-18.5 -26.5t-7 -32v-114h-83v267h417z" />
    <glyph glyph-name="eight" unicode="8" horiz-adv-x="486" 
d="M456 151q0 -42 -19 -73.5t-50 -52.5t-69 -31.5t-75 -10.5q-38 0 -75.5 10.5t-68.5 31.5t-50 52.5t-19 73.5v162q0 93 84 134q-35 20 -59.5 55t-24.5 98v109q0 42 18 71t47 47.5t65 26.5t72 8t71.5 -8.5t64 -26.5t46 -47t17.5 -71v-140q0 -47 -18.5 -77t-53.5 -53
q20 -8 37.5 -19t31 -27t21 -38.5t7.5 -53.5v-150zM191 351v-234q0 -24 13 -42t39 -18t37.5 18.5t11.5 41.5v191q0 20 -6.5 34.5t-18 26t-26.5 19.5t-32 16q-18 -23 -18 -53zM286 535v194q0 22 -11 40.5t-36 18.5t-39.5 -18t-14.5 -41v-123q0 -56 23 -85t57 -45q21 25 21 59z
" />
    <glyph glyph-name="nine" unicode="9" horiz-adv-x="489" 
d="M459 191q0 -45 -16 -83.5t-44.5 -66t-67 -43t-83.5 -15.5t-83.5 13.5t-67 39t-44.5 62.5t-16 83v67h159v-121q0 -11 2.5 -23.5t8 -23t14.5 -18t22 -7.5t21.5 7.5t14 18t8 23t2.5 23.5v595q0 23 -12 43.5t-38 20.5t-38 -20.5t-12 -43.5v-235q0 -11 3 -22.5t9 -21.5
t15.5 -16t22.5 -6q8 0 15.5 3t13.5 7v-81q-33 -16 -73 -16q-35 0 -65 12t-52 33.5t-35 51t-13 64.5v165q0 46 17 83.5t46 63.5t68 40.5t84 14.5t84 -14.5t68 -40.5t45.5 -63.5t16.5 -83.5v-469z" />
    <glyph glyph-name="colon" unicode=":" horiz-adv-x="196" 
d="M176 59q0 -29 -21.5 -47t-49.5 -18h-14q-28 0 -49.5 18t-21.5 47v40q0 29 21.5 47.5t49.5 18.5h14q28 0 49.5 -18.5t21.5 -47.5v-40zM176 347q0 -29 -21.5 -47.5t-49.5 -18.5h-14q-28 0 -49.5 18.5t-21.5 47.5v40q0 29 21.5 47.5t49.5 18.5h14q28 0 49.5 -18.5
t21.5 -47.5v-40z" />
    <glyph glyph-name="semicolon" unicode=";" horiz-adv-x="231" 
d="M211 87q0 -35 -21 -62l-98 -118h-72l35 189q6 30 28.5 49.5t53.5 19.5q35 0 54.5 -22t19.5 -56zM211 347q0 -29 -21.5 -47.5t-49.5 -18.5h-14q-28 0 -49.5 18.5t-21.5 47.5v40q0 29 21.5 47.5t49.5 18.5h14q28 0 49.5 -18.5t21.5 -47.5v-40z" />
    <glyph glyph-name="less" unicode="&#x3c;" horiz-adv-x="575" 
d="M555 602l-366 -178l366 -178v-138l-535 260v112l535 260v-138z" />
    <glyph glyph-name="equal" unicode="=" horiz-adv-x="535" 
d="M515 267h-495v125h495v-125zM515 456h-495v125h495v-125z" />
    <glyph glyph-name="greater" unicode="&#x3e;" horiz-adv-x="575" 
d="M555 368l-535 -260v138l366 178l-366 178v138l535 -260v-112z" />
    <glyph glyph-name="question" unicode="?" horiz-adv-x="447" 
d="M253 59q0 -29 -21.5 -47t-48.5 -18h-14q-28 0 -49.5 18t-21.5 47v40q0 29 21.5 47.5t49.5 18.5h14q27 0 48.5 -18.5t21.5 -47.5v-40zM268 719q4 24 -10 38.5t-32 16.5t-33.5 -11t-15.5 -46v-134h-157v122q0 42 17.5 72t45.5 48.5t64 27.5t74 9q38 -2 75 -11.5t66 -29
t47 -50t18 -73.5v-122q0 -37 -15.5 -69t-42.5 -56l-113 -102q-7 -6 -8.5 -15t-1.5 -17v-118h-142v114q0 36 14 59t37 48l84 92q20 21 24.5 47.5t4.5 53.5v106z" />
    <glyph glyph-name="at" unicode="@" horiz-adv-x="860" 
d="M840 516q0 -61 -19.5 -117.5t-57.5 -104.5q-16 -20 -39.5 -38.5t-50.5 -33t-56 -23.5t-54 -9q-27 0 -48.5 14t-30.5 38q-34 -26 -76 -38.5t-78.5 -6t-61 34t-24.5 82.5q0 37 13 78.5t35.5 80t54 69.5t67.5 47.5t75.5 15t79.5 -28.5l1 1l93 -47l-67 -224q-1 -3 -1 -14
q0 -5 2 -10t9 -5q11 0 22 6t21 15t19 19.5t15 18.5q19 27 29 61.5t10 68.5q0 68 -25 117.5t-66.5 80.5t-94 44.5t-107 9.5t-107 -25t-94 -58.5t-66.5 -92t-25 -124.5q0 -56 25 -107.5t67.5 -93.5t98.5 -71t117.5 -41t125 -3t121.5 43l36 -59q-73 -55 -153.5 -79.5
t-159 -21.5t-150 32.5t-126 82.5t-87 128t-32.5 170q0 112 52.5 205t147.5 156q50 33 111 54.5t125 27.5t127 -6.5t117 -48.5q64 -43 102 -111.5t38 -158.5zM369 351q0 -11 8 -26.5t22 -15.5q10 0 24 6t29.5 15.5t30.5 21.5t29 24l26 89q-13 37 -31 49t-36.5 6.5t-37 -24
t-32.5 -43.5t-23 -52.5t-9 -49.5z" />
    <glyph glyph-name="A" unicode="A" horiz-adv-x="602" 
d="M582 0h-205l-29 136h-172l-28 -136h-128v69q29 0 44 14t21 41l131 629q-6 17 -17 21q-14 5 -34 5h-14v69h213l153 -723q6 -28 21 -42t44 -14v-69zM205 275h113l-57 268z" />
    <glyph glyph-name="B" unicode="B" horiz-adv-x="546" 
d="M516 184q0 -38 -14.5 -71.5t-39.5 -58.5t-59 -39.5t-72 -14.5h-311v69q23 0 39 16t16 39v600q0 23 -16 39t-39 16v69h307q36 0 67.5 -13.5t55.5 -37.5t37.5 -55.5t13.5 -67.5v-87q0 -41 -18 -77.5t-50 -60.5q38 -26 60.5 -67t22.5 -88v-110zM274 69q28 0 47.5 19.5
t19.5 46.5v211q0 30 -18.5 46t-44.5 19q-2 0 -11.5 0.5t-21.5 0.5h-3v-343h32zM244 482q12 0 21 0.5t11 0.5q25 4 41.5 21.5t16.5 44.5v163q0 26 -15.5 43.5t-39.5 22.5q-2 0 -11.5 0.5t-21.5 0.5h-4v-297h2z" />
    <glyph glyph-name="C" unicode="C" horiz-adv-x="484" 
d="M464 179q0 -66 -32 -108.5t-80.5 -63t-104.5 -19t-104.5 23.5t-80.5 64t-32 103v487q0 66 32 109t80.5 63t104.5 19t104.5 -23t80.5 -64t32 -104v-51h-157v72q0 29 -8 46t-19 25t-21.5 9t-15.5 -2q-12 -3 -20.5 -11.5t-13 -19.5t-6.5 -23.5t-2 -23.5v-556
q0 -38 16.5 -54.5t36.5 -15t36.5 19.5t16.5 50v141h157v-93z" />
    <glyph glyph-name="D" unicode="D" horiz-adv-x="532" 
d="M502 185q0 -53 -16 -88.5t-45.5 -57t-71 -30.5t-91.5 -9h-11h-247v69q23 0 39 16t16 39v600q0 23 -16 39t-39 16v69h258q48 0 89 -9t71 -30.5t47 -56t17 -85.5v-482zM279 70q30 5 44 28t14 55v535q0 19 -7 37.5t-19.5 31.5t-30 19.5t-38.5 2.5v-710h24t13 1z" />
    <glyph glyph-name="E" unicode="E" horiz-adv-x="463" 
d="M436 613h-83v85q0 34 -23.5 57.5t-57.5 23.5h-30v-270h164v-152h-164v-288h30q34 0 57.5 23.5t23.5 57.5v110h90v-260h-423v69q23 0 39 16t16 39v600q0 23 -16 39t-39 16v69h416v-235z" />
    <glyph glyph-name="F" unicode="F" horiz-adv-x="456" 
d="M436 613h-83v85q0 34 -23.5 57.5t-57.5 23.5h-30v-270h164v-152h-164v-357h-222v69q23 0 39 16t16 39v600q0 23 -16 39t-39 16v69h416v-235z" />
    <glyph glyph-name="G" unicode="G" horiz-adv-x="497" 
d="M468 174q0 -66 -32.5 -108t-81 -61t-105.5 -16t-105.5 26t-81 66t-32.5 104v475q0 66 32 109t80 64.5t104.5 21t104.5 -22t80 -63.5t32 -103l-1 -79h-154l-1 100q0 29 -8 46t-19 25t-21.5 9t-15.5 -2q-12 -3 -20.5 -11.5t-14 -19.5t-7.5 -23.5t-2 -23.5v-556
q0 -36 19 -51t39 -13q23 2 40 22.5t17 53.5v58q0 14 -7.5 23.5t-21.5 9.5h-53v69h236v-129z" />
    <glyph glyph-name="H" unicode="H" 
d="M583 0h-222v363h-119v-363h-222v69q23 0 39 16t16 39v600q0 23 -16 39t-39 16v69h222v-330h119v330h222v-69q-22 0 -38 -16t-16 -39v-600q0 -23 16 -39t38 -16v-69z" />
    <glyph glyph-name="I" unicode="I" horiz-adv-x="317" 
d="M297 0h-277v69q23 0 39 16t16 39v600q0 23 -16 39t-39 16v69h277v-69q-23 0 -39 -16t-16 -39v-600q0 -23 16 -39t39 -16v-69z" />
    <glyph glyph-name="J" unicode="J" horiz-adv-x="453" 
d="M266 724q0 24 -16 39.5t-39 15.5h-32v69h254v-679q0 -59 -30.5 -99t-76.5 -60.5t-99.5 -22t-99.5 18t-76.5 60.5t-30.5 103v112h179v-175q0 -18 10.5 -29.5t23 -13.5t23 8t10.5 35v618z" />
    <glyph glyph-name="K" unicode="K" horiz-adv-x="561" 
d="M242 0h-222v69q23 0 39 16t16 39v600q0 23 -16 39t-39 16v69h222v-363l173 363h122v-69q-31 0 -49.5 -9.5t-32.5 -38.5l-110 -244q24 -3 47 -14t40.5 -28.5t28.5 -40t11 -47.5v-233q0 -23 16 -39t39 -16h14v-69h-109q-26 0 -48.5 10t-39 26.5t-26.5 39t-10 48.5v237
q0 11 -2.5 22t-7.5 20.5t-14 16t-21 7.5h-21v-427z" />
    <glyph glyph-name="L" unicode="L" horiz-adv-x="468" 
d="M448 0h-428v69q23 0 39 16t16 39v600q0 23 -16 39t-39 16v69h222v-779h34q34 0 57.5 23.5t23.5 57.5v110h91v-260z" />
    <glyph glyph-name="M" unicode="M" horiz-adv-x="640" 
d="M620 0h-212v471l-85 -471h-72l-70 297v-297h-161v69h12q23 0 39 16t16 39v557l-10 42q-6 25 -17 40.5t-40 15.5v69h188l109 -542l86 542h217v-69q-23 0 -39 -16t-16 -39v-600q0 -23 16 -39t39 -16v-69z" />
    <glyph glyph-name="N" unicode="N" horiz-adv-x="587" 
d="M568 779h-12q-23 0 -35.5 -16.5t-12.5 -38.5v-724h-97l-224 503l1 -503h-168v69h19q23 0 39 16t16 39v588l-4 9q-11 25 -25 41.5t-45 16.5v69h194l200 -444v444h154v-69z" />
    <glyph glyph-name="O" unicode="O" horiz-adv-x="521" 
d="M323 698q0 43 -19.5 62t-43 17t-43 -22.5t-19.5 -56.5v-565q0 -24 10 -40t25.5 -24.5t32.5 -8t31 10t21.5 28t4.5 47.5v552zM491 191q0 -68 -34 -113.5t-85.5 -68t-111 -22t-111 23.5t-85.5 68t-34 112v463q0 70 34 115.5t85.5 67.5t111 20.5t111 -24.5t85.5 -68t34 -111
v-463z" />
    <glyph glyph-name="P" unicode="P" horiz-adv-x="511" 
d="M491 555q0 -31 -12 -58.5t-33 -48.5t-48.5 -33t-58.5 -12h-97v-403h-222v69q23 0 39 16t16 39v600q0 23 -16 39t-39 16v69h319q31 0 58.5 -12t48.5 -32.5t33 -48t12 -58.5v-142zM277 778q-2 0 -12.5 0.5t-22.5 0.5v-303q16 -2 31.5 0.5t27.5 10.5t19 20.5t7 29.5v182
q0 24 -14 39.5t-36 19.5z" />
    <glyph glyph-name="Q" unicode="Q" horiz-adv-x="539" 
d="M519 0h-100q-16 0 -31.5 3t-29.5 10q-26 -17 -54 -22t-44 -5q-46 0 -87.5 14t-73 41t-50.5 65.5t-19 87.5v460q0 70 34 115t85.5 67t111 21t111 -24.5t85.5 -68.5t34 -110v-460q0 -20 -12.5 -49.5t-35.5 -52.5q14 -17 39 -17h37v-75zM323 694q1 34 -18 54t-43 22t-44 -16
t-20 -59v-546q0 -14 3.5 -29.5t11 -28.5t19 -21.5t28.5 -8.5q6 0 21 2t30 12l-7 23q-7 20 -22.5 24.5t-33.5 4.5v72h70h4z" />
    <glyph glyph-name="R" unicode="R" horiz-adv-x="597" 
d="M575 0h-109q-25 0 -48 10t-39.5 26.5t-26.5 39t-10 48.5v205q0 15 -4 30.5t-12 27.5t-20.5 19.5t-29.5 7.5h-36v-414h-222v69q23 0 39 16t16 39v600q0 23 -16 39t-39 16v69h326q31 0 58.5 -12t48.5 -32.5t33 -48t12 -58.5v-131q0 -37 -17.5 -69.5t-46.5 -54.5
q31 -17 52.5 -46.5t21.5 -66.5v-205q0 -23 16 -39t39 -16h14v-69zM240 779v-291h3q12 0 22 0.5t12 0.5q21 4 38 17.5t17 37.5v175q0 25 -18 42.5t-43 17.5h-31z" />
    <glyph glyph-name="S" unicode="S" horiz-adv-x="454" 
d="M225 -17q-39 -1 -75 7.5t-63.5 27.5t-44 49.5t-16.5 72.5v122h158v-126q0 -32 13.5 -48t30 -15.5t31 18t15.5 53.5q1 24 0 42t-5 33t-11 29t-19 29l-172 214q-22 27 -34.5 60t-12.5 68v65q0 57 29 95.5t72 58.5t94 21.5t94 -15.5t72 -52.5t29 -90.5v-108h-144v122
q0 30 -14 44t-30.5 12.5t-30.5 -18t-14 -47.5v-45q0 -17 3 -36t14 -33l193 -239q22 -27 34.5 -59.5t12.5 -67.5v-79q0 -44 -18 -75t-47.5 -50.5t-67 -28.5t-76.5 -10z" />
    <glyph glyph-name="T" unicode="T" horiz-adv-x="542" 
d="M522 567h-83v128q0 28 -10 47.5t-36 24.5q-2 0 -11 0.5t-20 0.5h-7v-644q0 -23 16 -39t39 -16v-69h-277v69q23 0 39 16t16 39v645h-29q-31 -2 -43.5 -23t-12.5 -51v-128h-83v281h502v-281z" />
    <glyph glyph-name="U" unicode="U" horiz-adv-x="561" 
d="M487 155q-1 -58 -32 -96t-76.5 -56.5t-99 -18t-99 20t-75.5 57t-30 93.5v569q0 23 -16 39t-39 16v69h222v-750q0 -23 12 -34t26.5 -10.5t26.5 12t12 32.5v750h222v-69q-23 0 -38.5 -16t-15.5 -39v-569z" />
    <glyph glyph-name="V" unicode="V" horiz-adv-x="552" 
d="M532 779q-26 0 -43.5 -12.5t-22.5 -38.5l-142 -728h-108l-130 729q-5 26 -23 38t-43 12v69h209l79 -435l84 435h140v-69z" />
    <glyph glyph-name="W" unicode="W" horiz-adv-x="715" 
d="M695 779q-26 0 -43.5 -13.5t-22.5 -39.5l-126 -726h-92l-52 157l-28 -157h-108l-137 727q-5 26 -22.5 39t-43.5 13v69h209l56 -296l48 209h97l56 -310l69 397h140v-69z" />
    <glyph glyph-name="X" unicode="X" horiz-adv-x="554" 
d="M511 779q-62 0 -82 -56l-89 -246l107 -347q9 -31 32 -46t55 -15v-69h-217l-76 248l-93 -248h-128v69q27 0 46.5 16t28.5 40l101 269l-99 324q-9 29 -27 45t-50 16v69h206l71 -233l86 233h128v-69z" />
    <glyph glyph-name="Y" unicode="Y" horiz-adv-x="548" 
d="M528 779q-26 0 -41 -14t-22 -39l-96 -407v-195q0 -23 16 -39t39 -16v-69h-277v69q23 0 39 16t16 39v217q-15 53 -26 93t-24 87t-24.5 89t-20 72t-10.5 37q-8 29 -26.5 44.5t-50.5 15.5v69h207l96 -361l85 361h120v-69z" />
    <glyph glyph-name="Z" unicode="Z" horiz-adv-x="460" 
d="M419 848l-206 -779h45q16 0 32.5 6t29.5 17t21 26t8 32v127h91v-277h-420l217 779h-49q-17 0 -32.5 -7t-27 -18.5t-18.5 -26.5t-7 -32v-114h-83v267h399z" />
    <glyph glyph-name="bracketleft" unicode="[" horiz-adv-x="314" 
d="M294 793h-113v-825h113v-69h-274v963h274v-69z" />
    <glyph glyph-name="backslash" unicode="\" horiz-adv-x="406" 
d="M386 -82h-96l-270 930h96z" />
    <glyph glyph-name="bracketright" unicode="]" horiz-adv-x="314" 
d="M20 862h274v-963h-274v69h113v825h-113v69z" />
    <glyph glyph-name="asciicircum" unicode="^" horiz-adv-x="589" 
d="M569 400h-139l-135 279l-136 -279h-139l218 448h112v-1l1 1z" />
    <glyph glyph-name="underscore" unicode="_" horiz-adv-x="500" 
d="M500 -79h-500v79h500v-79z" />
    <glyph glyph-name="grave" unicode="`" horiz-adv-x="248" 
d="M228 868h-33l-129 77q-12 8 -29 19.5t-17 28.5q0 12 11 22t23 10q21 0 35.5 -13t28.5 -27z" />
    <glyph glyph-name="a" unicode="a" horiz-adv-x="602" 
d="M582 0h-205l-29 136h-172l-28 -136h-128v69q29 0 44 14t21 41l131 629q-6 17 -17 21q-14 5 -34 5h-14v69h213l153 -723q6 -28 21 -42t44 -14v-69zM205 275h113l-57 268z" />
    <glyph glyph-name="b" unicode="b" horiz-adv-x="546" 
d="M516 184q0 -38 -14.5 -71.5t-39.5 -58.5t-59 -39.5t-72 -14.5h-311v69q23 0 39 16t16 39v600q0 23 -16 39t-39 16v69h307q36 0 67.5 -13.5t55.5 -37.5t37.5 -55.5t13.5 -67.5v-87q0 -41 -18 -77.5t-50 -60.5q38 -26 60.5 -67t22.5 -88v-110zM274 69q28 0 47.5 19.5
t19.5 46.5v211q0 30 -18.5 46t-44.5 19q-2 0 -11.5 0.5t-21.5 0.5h-3v-343h32zM244 482q12 0 21 0.5t11 0.5q25 4 41.5 21.5t16.5 44.5v163q0 26 -15.5 43.5t-39.5 22.5q-2 0 -11.5 0.5t-21.5 0.5h-4v-297h2z" />
    <glyph glyph-name="c" unicode="c" horiz-adv-x="484" 
d="M464 179q0 -66 -32 -108.5t-80.5 -63t-104.5 -19t-104.5 23.5t-80.5 64t-32 103v487q0 66 32 109t80.5 63t104.5 19t104.5 -23t80.5 -64t32 -104v-51h-157v72q0 29 -8 46t-19 25t-21.5 9t-15.5 -2q-12 -3 -20.5 -11.5t-13 -19.5t-6.5 -23.5t-2 -23.5v-556
q0 -38 16.5 -54.5t36.5 -15t36.5 19.5t16.5 50v141h157v-93z" />
    <glyph glyph-name="d" unicode="d" horiz-adv-x="532" 
d="M502 185q0 -53 -16 -88.5t-45.5 -57t-71 -30.5t-91.5 -9h-11h-247v69q23 0 39 16t16 39v600q0 23 -16 39t-39 16v69h258q48 0 89 -9t71 -30.5t47 -56t17 -85.5v-482zM279 70q30 5 44 28t14 55v535q0 19 -7 37.5t-19.5 31.5t-30 19.5t-38.5 2.5v-710h24t13 1z" />
    <glyph glyph-name="e" unicode="e" horiz-adv-x="463" 
d="M436 613h-83v85q0 34 -23.5 57.5t-57.5 23.5h-30v-270h164v-152h-164v-288h30q34 0 57.5 23.5t23.5 57.5v110h90v-260h-423v69q23 0 39 16t16 39v600q0 23 -16 39t-39 16v69h416v-235z" />
    <glyph glyph-name="f" unicode="f" horiz-adv-x="456" 
d="M436 613h-83v85q0 34 -23.5 57.5t-57.5 23.5h-30v-270h164v-152h-164v-357h-222v69q23 0 39 16t16 39v600q0 23 -16 39t-39 16v69h416v-235z" />
    <glyph glyph-name="g" unicode="g" horiz-adv-x="497" 
d="M468 174q0 -66 -32.5 -108t-81 -61t-105.5 -16t-105.5 26t-81 66t-32.5 104v475q0 66 32 109t80 64.5t104.5 21t104.5 -22t80 -63.5t32 -103l-1 -79h-154l-1 100q0 29 -8 46t-19 25t-21.5 9t-15.5 -2q-12 -3 -20.5 -11.5t-14 -19.5t-7.5 -23.5t-2 -23.5v-556
q0 -36 19 -51t39 -13q23 2 40 22.5t17 53.5v58q0 14 -7.5 23.5t-21.5 9.5h-53v69h236v-129z" />
    <glyph glyph-name="h" unicode="h" 
d="M583 0h-222v363h-119v-363h-222v69q23 0 39 16t16 39v600q0 23 -16 39t-39 16v69h222v-330h119v330h222v-69q-22 0 -38 -16t-16 -39v-600q0 -23 16 -39t38 -16v-69z" />
    <glyph glyph-name="i" unicode="i" horiz-adv-x="317" 
d="M297 0h-277v69q23 0 39 16t16 39v600q0 23 -16 39t-39 16v69h277v-69q-23 0 -39 -16t-16 -39v-600q0 -23 16 -39t39 -16v-69z" />
    <glyph glyph-name="j" unicode="j" horiz-adv-x="453" 
d="M266 724q0 24 -16 39.5t-39 15.5h-32v69h254v-679q0 -59 -30.5 -99t-76.5 -60.5t-99.5 -22t-99.5 18t-76.5 60.5t-30.5 103v112h179v-175q0 -18 10.5 -29.5t23 -13.5t23 8t10.5 35v618z" />
    <glyph glyph-name="k" unicode="k" horiz-adv-x="561" 
d="M242 0h-222v69q23 0 39 16t16 39v600q0 23 -16 39t-39 16v69h222v-363l173 363h122v-69q-31 0 -49.5 -9.5t-32.5 -38.5l-110 -244q24 -3 47 -14t40.5 -28.5t28.5 -40t11 -47.5v-233q0 -23 16 -39t39 -16h14v-69h-109q-26 0 -48.5 10t-39 26.5t-26.5 39t-10 48.5v237
q0 10 -2.5 21.5t-7.5 21t-14 16t-21 7.5h-21v-427z" />
    <glyph glyph-name="l" unicode="l" horiz-adv-x="468" 
d="M448 0h-428v69q23 0 39 16t16 39v600q0 23 -16 39t-39 16v69h222v-779h34q34 0 57.5 23.5t23.5 57.5v110h91v-260z" />
    <glyph glyph-name="m" unicode="m" horiz-adv-x="640" 
d="M620 0h-212v471l-85 -471h-72l-70 297v-297h-161v69h12q23 0 39 16t16 39v557l-10 42q-6 25 -17 40.5t-40 15.5v69h188l109 -542l86 542h217v-69q-23 0 -39 -16t-16 -39v-600q0 -23 16 -39t39 -16v-69z" />
    <glyph glyph-name="n" unicode="n" horiz-adv-x="587" 
d="M568 779h-12q-23 0 -35.5 -16.5t-12.5 -38.5v-724h-97l-224 503l1 -503h-168v69h19q23 0 39 16t16 39v588l-4 9q-11 25 -25 41.5t-45 16.5v69h194l200 -444v444h154v-69z" />
    <glyph glyph-name="o" unicode="o" horiz-adv-x="521" 
d="M323 698q0 43 -19.5 62t-43 17t-43 -22.5t-19.5 -56.5v-565q0 -24 10 -40t25.5 -24.5t32.5 -8t31 10t21.5 28t4.5 47.5v552zM491 191q0 -68 -34 -113.5t-85.5 -68t-111 -22t-111 23.5t-85.5 68t-34 112v463q0 70 34 115.5t85.5 67.5t111 20.5t111 -24.5t85.5 -68t34 -111
v-463z" />
    <glyph glyph-name="p" unicode="p" horiz-adv-x="511" 
d="M491 555q0 -31 -12 -58.5t-33 -48.5t-48.5 -33t-58.5 -12h-97v-403h-222v69q23 0 39 16t16 39v600q0 23 -16 39t-39 16v69h319q31 0 58.5 -12t48.5 -32.5t33 -48t12 -58.5v-142zM277 778q-2 0 -12.5 0.5t-22.5 0.5v-303q16 -2 31.5 0.5t27.5 10.5t19 20.5t7 29.5v182
q0 24 -14 39.5t-36 19.5z" />
    <glyph glyph-name="q" unicode="q" horiz-adv-x="539" 
d="M519 0h-100q-16 0 -31.5 3t-29.5 10q-26 -17 -54 -22t-44 -5q-46 0 -87.5 14t-73 41t-50.5 65.5t-19 87.5v460q0 70 34 115t85.5 67t111 21t111 -24.5t85.5 -68.5t34 -110v-460q0 -20 -12.5 -49.5t-35.5 -52.5q14 -17 39 -17h37v-75zM323 694q1 34 -18 54t-43 22t-44 -16
t-20 -59v-546q0 -14 3.5 -29.5t11 -28.5t19 -21.5t28.5 -8.5q6 0 21 2t30 12l-7 23q-7 20 -22.5 24.5t-33.5 4.5v72h70h4z" />
    <glyph glyph-name="r" unicode="r" horiz-adv-x="597" 
d="M575 0h-109q-25 0 -48 10t-39.5 26.5t-26.5 39t-10 48.5v205q0 15 -4 30.5t-12 27.5t-20.5 19.5t-29.5 7.5h-36v-414h-222v69q23 0 39 16t16 39v600q0 23 -16 39t-39 16v69h326q31 0 58.5 -12t48.5 -32.5t33 -48t12 -58.5v-131q0 -37 -17.5 -69.5t-46.5 -54.5
q31 -17 52.5 -46.5t21.5 -66.5v-205q0 -23 16 -39t39 -16h14v-69zM240 779v-291h3q12 0 22 0.5t12 0.5q21 4 38 17.5t17 37.5v175q0 25 -18 42.5t-43 17.5h-31z" />
    <glyph glyph-name="s" unicode="s" horiz-adv-x="454" 
d="M225 -17q-39 -1 -75 7.5t-63.5 27.5t-44 49.5t-16.5 72.5v122h158v-126q0 -32 13.5 -48t30 -15.5t31 18t15.5 53.5q1 24 0 42t-5 33t-11 29t-19 29l-172 214q-22 27 -34.5 60t-12.5 68v65q0 57 29 95.5t72 58.5t94 21.5t94 -15.5t72 -52.5t29 -90.5v-108h-144v122
q0 30 -14 44t-30.5 12.5t-30.5 -18t-14 -47.5v-45q0 -17 3 -36t14 -33l193 -239q22 -27 34.5 -59.5t12.5 -67.5v-79q0 -44 -18 -75t-47.5 -50.5t-67 -28.5t-76.5 -10z" />
    <glyph glyph-name="t" unicode="t" horiz-adv-x="542" 
d="M522 567h-83v128q0 28 -10 47.5t-36 24.5q-2 0 -11 0.5t-20 0.5h-7v-644q0 -23 16 -39t39 -16v-69h-277v69q23 0 39 16t16 39v645h-29q-31 -2 -43.5 -23t-12.5 -51v-128h-83v281h502v-281z" />
    <glyph glyph-name="u" unicode="u" horiz-adv-x="561" 
d="M487 155q-1 -58 -32 -96t-76.5 -56.5t-99 -18t-99 20t-75.5 57t-30 93.5v569q0 23 -16 39t-39 16v69h222v-750q0 -23 12 -34t26.5 -10.5t26.5 12t12 32.5v750h222v-69q-23 0 -38.5 -16t-15.5 -39v-569z" />
    <glyph glyph-name="v" unicode="v" horiz-adv-x="552" 
d="M532 779q-26 0 -43.5 -12.5t-22.5 -38.5l-142 -728h-108l-130 729q-5 26 -23 38t-43 12v69h209l79 -435l84 435h140v-69z" />
    <glyph glyph-name="w" unicode="w" horiz-adv-x="715" 
d="M695 779q-26 0 -43.5 -13.5t-22.5 -39.5l-126 -726h-92l-52 157l-28 -157h-108l-137 727q-5 26 -22.5 39t-43.5 13v69h209l56 -296l48 209h97l56 -310l69 397h140v-69z" />
    <glyph glyph-name="x" unicode="x" horiz-adv-x="554" 
d="M511 779q-62 0 -82 -56l-89 -246l107 -347q9 -31 32 -46t55 -15v-69h-217l-76 248l-93 -248h-128v69q27 0 46.5 16t28.5 40l101 269l-99 324q-9 29 -27 45t-50 16v69h206l71 -233l86 233h128v-69z" />
    <glyph glyph-name="y" unicode="y" horiz-adv-x="548" 
d="M528 779q-26 0 -41 -14t-22 -39l-96 -407v-195q0 -23 16 -39t39 -16v-69h-277v69q23 0 39 16t16 39v217q-15 53 -26 93t-24 87t-24.5 89t-20 72t-10.5 37q-8 29 -26.5 44.5t-50.5 15.5v69h207l96 -361l85 361h120v-69z" />
    <glyph glyph-name="z" unicode="z" horiz-adv-x="460" 
d="M419 848l-206 -779h45q16 0 32.5 6t29.5 17t21 26t8 32v127h91v-277h-420l217 779h-49q-17 0 -32.5 -7t-27 -18.5t-18.5 -26.5t-7 -32v-114h-83v267h399z" />
    <glyph glyph-name="braceleft" unicode="{" horiz-adv-x="374" 
d="M354 -100q-47 6 -91.5 20t-79 38.5t-56 62t-21.5 91.5q0 40 11 78.5t11 78.5q0 21 -11 34t-27.5 21t-35 12t-34.5 7v27h172q19 -13 36.5 -28.5t30.5 -34t21 -40t8 -45.5q0 -38 -9.5 -75t-9.5 -75q0 -24 5.5 -39t16.5 -24.5t26.5 -15t36.5 -10.5v-83zM354 776
q-21 -4 -37 -8.5t-26.5 -13.5t-16 -24t-5.5 -39q0 -38 9.5 -75.5t9.5 -75.5q0 -49 -30 -86.5t-69 -62.5h-169v28q15 3 33.5 7t35 11.5t28 20t11.5 32.5t-3.5 40t-7.5 39.5t-7.5 39.5t-3.5 40q0 54 21 92t56 63t79.5 38.5t91.5 19.5v-86z" />
    <glyph glyph-name="bar" unicode="|" horiz-adv-x="127" 
d="M107 -102h-87v999h87v-999z" />
    <glyph glyph-name="braceright" unicode="}" horiz-adv-x="374" 
d="M354 343q-16 -3 -34.5 -7t-35 -12t-27.5 -21t-11 -34q0 -40 11 -78.5t11 -78.5q0 -54 -21.5 -91.5t-56 -62t-79.5 -38.5t-91 -20v83q21 5 36.5 10.5t26.5 15t16.5 24.5t5.5 39q0 38 -9.5 75t-9.5 75q0 24 8 45.5t21 40t30.5 34t36.5 28.5h172v-27zM354 391h-169
q-39 25 -69 62.5t-30 86.5q0 38 9.5 75.5t9.5 75.5q0 24 -5.5 39t-16 24t-26.5 13.5t-37 8.5v86q47 -6 91.5 -19.5t79.5 -38.5t56.5 -63t21.5 -92q0 -20 -3.5 -40t-8 -39.5t-8 -39.5t-3.5 -40t11.5 -32.5t28 -20t35 -11.5t33.5 -7v-28z" />
    <glyph glyph-name="asciitilde" unicode="~" horiz-adv-x="637" 
d="M308 373q-29 11 -60.5 22t-62.5 11q-28 0 -50 -10.5t-42 -30.5l-73 73q35 35 75 53.5t91 18.5q31 0 62 -7.5t60 -18.5v-111zM617 410q-33 -33 -73 -52.5t-88 -19.5q-33 0 -64.5 8t-62.5 19v111q31 -12 62 -23t64 -11q26 0 48.5 11.5t40.5 29.5z" />
    <glyph glyph-name="currency" unicode="&#xa4;" horiz-adv-x="543" 
d="M523 179q0 -46 -17.5 -82t-47.5 -61.5t-69.5 -39t-82.5 -13.5t-82.5 13.5t-69.5 39t-47.5 61.5t-17.5 82v152h-69l40 69h29v44h-69l40 70h29v152q0 45 17.5 81.5t47.5 62t69.5 39t82.5 13.5t82.5 -13.5t69.5 -39t47.5 -62t17.5 -81.5v-51h-156v65q0 37 -13 61.5t-48 24.5
q-16 0 -27 -7.5t-18.5 -19.5t-11 -26.5t-3.5 -27.5v-171h227l-40 -70h-187v-44h162l-40 -69h-122v-198q0 -14 3.5 -28t11 -25.5t18.5 -19t27 -7.5t27.5 7.5t19 19t11 25.5t3.5 28v101h156v-55z" />
    <glyph glyph-name="brokenbar" unicode="&#xa6;" horiz-adv-x="127" 
d="M107 -102h-87v485h87v-485zM107 411h-87v486h87v-486z" />
    <glyph glyph-name="copyright" unicode="&#xa9;" horiz-adv-x="920" 
d="M457 94q-38 0 -71.5 12.5t-59.5 35t-41 54.5t-15 71v310q0 40 15 71.5t41 54t59.5 35t71.5 12.5v-93q-19 -6 -25 -26t-6 -37v-366q0 -17 6.5 -36t24.5 -26v-72zM650 267q0 -37 -13.5 -67.5t-37 -53t-54.5 -35.5t-67 -16v71q9 3 14.5 10t8.5 16t4 18.5t1 17.5v124h144v-85
zM650 529h-144v65q0 17 -5.5 35.5t-22.5 26.5v94q36 -3 67 -16t54.5 -35.5t37 -53.5t13.5 -68v-48zM850 422q0 80 -31 151t-84 124t-124 84t-151 31t-151 -30.5t-124 -83.5t-83.5 -124t-30.5 -152q0 -80 30.5 -151t83.5 -124t124 -83.5t151 -30.5q81 0 152 30.5t124 83.5
t83.5 124t30.5 151zM900 422q0 -91 -34.5 -171t-94.5 -139.5t-140 -94t-171 -34.5t-171 34.5t-140 94t-94.5 139.5t-34.5 171t34.5 171t94.5 140t140 94.5t171 34.5t171 -34.5t140 -94.5t94.5 -140t34.5 -171z" />
    <glyph glyph-name="guillemotleft" unicode="&#xab;" horiz-adv-x="404" 
d="M248 161h-108l-120 187l120 188h108l-120 -188zM384 161h-107l-120 187l120 188h107l-120 -188z" />
    <glyph glyph-name="logicalnot" unicode="&#xac;" horiz-adv-x="535" 
d="M515 362h-495v124h495v-124zM515 341v-95h-124v95h124z" />
    <glyph glyph-name="uni00AD" unicode="&#xad;" horiz-adv-x="535" 
d="M515 362h-495v124h495v-124z" />
    <glyph glyph-name="registered" unicode="&#xae;" horiz-adv-x="618" 
d="M295 373h-105v32q11 0 18.5 7.5t7.5 18.5v285q0 11 -7.5 18.5t-18.5 7.5v32h105v-401zM454 373h-52q-24 0 -41 17t-17 41v98q0 13 -7 25.5t-21 14.5v36q9 2 16 8.5t7 16.5v83q0 10 -6.5 18t-16.5 10v33h28q30 0 51 -21t21 -50v-62q0 -37 -30 -59q14 -8 24.5 -22t10.5 -31
v-98q0 -14 10 -20t23 -6v-32zM566 574q0 53 -20.5 99.5t-55.5 81.5t-81.5 55.5t-99.5 20.5t-100 -20.5t-82 -55.5t-55.5 -81.5t-20.5 -99.5t20.5 -100t55.5 -82t82 -55.5t100 -20.5t99.5 20.5t81.5 55.5t55.5 82t20.5 100zM598 574q0 -60 -23 -112.5t-62 -91.5t-91.5 -62
t-112.5 -23t-112.5 23t-91.5 62t-62 91.5t-23 112.5q0 59 23 111.5t62 91.5t91.5 62t112.5 23t112.5 -23t91.5 -62t62 -91.5t23 -111.5z" />
    <glyph glyph-name="degree" unicode="&#xb0;" horiz-adv-x="328" 
d="M154 536q-26 1 -50 7.5t-43 20t-30 34.5t-11 50v95q0 29 11 50t30 34.5t43 20t50 7.5v-62q-12 -4 -18 -14t-6 -21v-125q0 -11 6 -21t18 -14v-62zM308 648q0 -29 -11 -50t-30 -34.5t-43 -20t-50 -7.5v62q12 4 18 14t6 21v125q0 11 -6 21.5t-18 13.5v62q26 -1 50 -7.5
t43 -20t30 -34.5t11 -50v-95z" />
    <glyph glyph-name="plusminus" unicode="&#xb1;" horiz-adv-x="535" 
d="M515 0h-495v124h495v-124zM185 362h-165v124h165v-124zM330 176h-125v496h125v-496zM515 362h-164v124h164v-124z" />
    <glyph glyph-name="mu" unicode="&#xb5;" horiz-adv-x="561" 
d="M242 -90h-222v69q23 0 39 15.5t16 38.5v552q0 23 -16 39t-39 16v69h222v-799zM541 640q-23 0 -38.5 -16t-15.5 -39v-430q0 -42 -18 -74t-47.5 -53.5t-66.5 -33t-74 -11.5h-9t-9 1v78q7 -4 18 -4q17 0 27.5 11.5t10.5 28.5v611h222v-69z" />
    <glyph glyph-name="paragraph" unicode="&#xb6;" horiz-adv-x="564" 
d="M289 -59q-129 73 -199 183t-70 261q0 152 69.5 261.5t199.5 184.5v-890zM544 -81q-21 -5 -43 -7.5t-44 -2.5q-20 0 -40.5 2.5t-40.5 5.5v938q20 3 40.5 5t40.5 2q45 0 87 -9l-14 -68q-34 8 -63 8h-22v-814h22q29 0 63 8z" />
    <glyph glyph-name="periodcentered" unicode="&#xb7;" horiz-adv-x="196" 
d="M176 437q0 -29 -21.5 -47.5t-49.5 -18.5h-14q-28 0 -49.5 18.5t-21.5 47.5v40q0 29 21.5 47.5t49.5 18.5h14q28 0 49.5 -18.5t21.5 -47.5v-40z" />
    <glyph glyph-name="guillemotright" unicode="&#xbb;" horiz-adv-x="404" 
d="M248 348l-120 -187h-108l120 187l-120 188h108zM384 348l-120 -187h-107l120 187l-120 188h107z" />
    <glyph glyph-name="afii10023" unicode="&#x401;" horiz-adv-x="463" 
d="M219 940q0 -20 -13.5 -34t-33.5 -14t-34 14t-14 34t14 33.5t34 13.5t33.5 -13.5t13.5 -33.5zM339 940q0 -20 -13.5 -34t-33.5 -14t-34 14t-14 34t14 33.5t34 13.5t33.5 -13.5t13.5 -33.5zM436 613h-83v85q0 34 -23.5 57.5t-57.5 23.5h-30v-270h164v-152h-164v-288h30
q34 0 57.5 23.5t23.5 57.5v110h90v-260h-423v69q23 0 39 16t16 39v600q0 23 -16 39t-39 16v69h416v-235z" />
    <glyph glyph-name="afii10053" unicode="&#x404;" horiz-adv-x="484" 
d="M464 179q0 -66 -32 -108.5t-80.5 -63t-104.5 -19t-104.5 23.5t-80.5 64t-32 103v487q0 49 20 85.5t52 60.5t72 35t81 10q40 -1 78 -14t67 -37t46.5 -59t17.5 -81v-51h-157v88q0 41 -16.5 60t-36.5 18t-36.5 -21t-16.5 -57v-194h159v-152h-159v-223q0 -38 16.5 -56
t36.5 -18t36.5 17t16.5 49v146h157v-93z" />
    <glyph glyph-name="uni0406" unicode="&#x406;" horiz-adv-x="317" 
d="M297 0h-277v69q23 0 39 16t16 39v600q0 23 -16 39t-39 16v69h277v-69q-23 0 -39 -16t-16 -39v-600q0 -23 16 -39t39 -16v-69z" />
    <glyph glyph-name="afii10056" unicode="&#x407;" horiz-adv-x="317" 
d="M297 0h-277v69q23 0 39 16t16 39v600q0 23 -16 39t-39 16v69h277v-69q-23 0 -39 -16t-16 -39v-600q0 -23 16 -39t39 -16v-69zM146 938q0 -20 -13.5 -34t-33.5 -14t-34 14t-14 34t14 33.5t34 13.5t33.5 -13.5t13.5 -33.5zM266 938q0 -20 -13.5 -34t-33.5 -14t-34 14
t-14 34t14 33.5t34 13.5t33.5 -13.5t13.5 -33.5z" />
    <glyph glyph-name="afii10062" unicode="&#x40e;" horiz-adv-x="538" 
d="M333 126q-14 -68 -48.5 -97t-85.5 -29h-48v73q28 -4 51.5 9t35.5 48l7 29q-7 25 -20.5 72t-29.5 104t-33 118.5t-32 115.5t-26.5 94.5t-15.5 55.5q-8 29 -26.5 44.5t-50.5 15.5v69h207l101 -373l89 373h120v-69q-26 0 -41 -14t-22 -39zM431 1039q0 -31 -10 -57.5t-28 -46
t-44 -30.5t-57 -11q-32 0 -57.5 11t-43.5 30.5t-28 46t-10 57.5h64q3 -30 24.5 -46.5t47 -18t49 14t31.5 50.5h62z" />
    <glyph glyph-name="afii10017" unicode="&#x410;" horiz-adv-x="602" 
d="M582 0h-205l-29 136h-172l-28 -136h-128v69q29 0 44 14t21 41l131 629q-6 17 -17 21q-14 5 -34 5h-14v69h213l153 -723q6 -28 21 -42t44 -14v-69zM205 275h113l-57 268z" />
    <glyph glyph-name="afii10018" unicode="&#x411;" horiz-adv-x="546" 
d="M278 411q-2 0 -11.5 0.5t-21.5 0.5h-3v-343h32q28 0 47.5 19.5t19.5 46.5v211q0 30 -18.5 46t-44.5 19zM242 779v-297h2h87q38 0 72 -15t59 -41t39.5 -60t14.5 -72v-110q0 -38 -14.5 -71.5t-39.5 -58.5t-59 -39.5t-72 -14.5h-311v69q23 0 39 16t16 39v600q0 23 -16 39
t-39 16v69h469v-235h-83v85q0 34 -23.5 57.5t-57.5 23.5h-83z" />
    <glyph glyph-name="afii10019" unicode="&#x412;" horiz-adv-x="546" 
d="M516 184q0 -38 -14.5 -71.5t-39.5 -58.5t-59 -39.5t-72 -14.5h-311v69q23 0 39 16t16 39v600q0 23 -16 39t-39 16v69h307q36 0 67.5 -13.5t55.5 -37.5t37.5 -55.5t13.5 -67.5v-87q0 -41 -18 -77.5t-50 -60.5q38 -26 60.5 -67t22.5 -88v-110zM274 69q28 0 47.5 19.5
t19.5 46.5v211q0 30 -18.5 46t-44.5 19q-2 0 -11.5 0.5t-21.5 0.5h-3v-343h32zM244 482q12 0 21 0.5t11 0.5q25 4 41.5 21.5t16.5 44.5v163q0 26 -15.5 43.5t-39.5 22.5q-2 0 -11.5 0.5t-21.5 0.5h-4v-297h2z" />
    <glyph glyph-name="afii10020" unicode="&#x413;" horiz-adv-x="456" 
d="M436 613h-83v85q0 34 -23.5 57.5t-57.5 23.5h-30v-779h-222v69q23 0 39 16t16 39v600q0 23 -16 39t-39 16v69h416v-235z" />
    <glyph glyph-name="afii10021" unicode="&#x414;" horiz-adv-x="545" 
d="M532 69v-235h-83v91q0 34 -24.5 54.5t-63.5 20.5h-185q-39 0 -63.5 -20.5t-24.5 -54.5v-91h-83v235h56l78 662q0 23 -15.5 39t-38.5 16v62h428v-69q-23 0 -39 -16t-16 -39v-655h74zM301 731h-67l-79 -662h146v662z" />
    <glyph glyph-name="afii10022" unicode="&#x415;" horiz-adv-x="463" 
d="M436 613h-83v85q0 34 -23.5 57.5t-57.5 23.5h-30v-270h164v-152h-164v-288h30q34 0 57.5 23.5t23.5 57.5v110h90v-260h-423v69q23 0 39 16t16 39v600q0 23 -16 39t-39 16v69h416v-235z" />
    <glyph glyph-name="afii10024" unicode="&#x416;" horiz-adv-x="801" 
d="M315 427h-20q-12 -1 -21 -7.5t-14 -16t-7.5 -21t-2.5 -21.5v-237q0 -26 -10 -48.5t-26.5 -39t-39.5 -26.5t-48 -10h-109v69h14q23 0 39 16t16 39v233q0 25 11 47.5t28.5 40t40.5 28.5t47 14l-110 244q-14 29 -32.5 38.5t-49.5 9.5v69h122l173 -363v239q0 23 -16.5 39
t-39.5 16v69h272v-69q-23 0 -36 -16t-13 -39l-1 -239l173 363h122v-69q-31 0 -49.5 -9.5t-32.5 -38.5l-110 -244q24 -3 47 -14t40.5 -28.5t28.5 -40t11 -47.5v-233q0 -23 16 -39t39 -16h14v-69h-109q-26 0 -48.5 10t-39 26.5t-26.5 39t-10 48.5v237q0 10 -2.5 21.5t-7.5 21
t-14 16t-21 7.5h-21l1 -303q0 -23 13 -39t36 -16v-69h-272v69q23 0 39 16t16 39v303z" />
    <glyph glyph-name="afii10025" unicode="&#x417;" horiz-adv-x="505" 
d="M286 328q0 42 -18 61.5t-46 19.5h-59v81h59q28 0 44.5 21.5t16.5 48.5v169q0 15 -3.5 27.5t-17.5 19.5q-4 1 -18 2t-22 -4q-11 -8 -17.5 -20t-6.5 -25v-133h-150v118q0 30 13 57t38 47t61 31.5t83 11.5q53 0 92.5 -13t65.5 -35.5t39 -52t13 -63.5v-103q0 -42 -19.5 -78.5
t-54.5 -59.5q45 -24 70.5 -67.5t25.5 -94.5v-117q0 -38 -15.5 -71.5t-45.5 -58t-73.5 -39t-100.5 -14.5q-50 0 -89 13.5t-66 36.5t-41 54t-14 66v108h160v-153q0 -22 13.5 -35.5t35.5 -13.5q20 0 33.5 13.5t13.5 35.5v209z" />
    <glyph glyph-name="afii10026" unicode="&#x418;" 
d="M242 0h-222v69q23 0 39 16t16 39v600q0 23 -16 39t-39 16v69h222v-475l119 474v1l1 3l6 -3h215v-69q-22 0 -38 -16t-16 -39v-600q0 -23 16 -39t38 -16v-69h-222v472l-119 -471v-1z" />
    <glyph glyph-name="afii10027" unicode="&#x419;" 
d="M242 0h-222v69q23 0 39 16t16 39v600q0 23 -16 39t-39 16v69h222v-475l119 474v1l1 3l6 -3h215v-69q-22 0 -38 -16t-16 -39v-600q0 -23 16 -39t38 -16v-69h-222v472l-119 -471v-1zM444 1039q0 -31 -10 -57.5t-28 -46t-44 -30.5t-57 -11q-32 0 -57.5 11t-43.5 30.5t-28 46
t-10 57.5h64q3 -30 24.5 -46.5t47 -18t49 14t31.5 50.5h62z" />
    <glyph glyph-name="afii10028" unicode="&#x41a;" horiz-adv-x="561" 
d="M242 0h-222v69q23 0 39 16t16 39v600q0 23 -16 39t-39 16v69h222v-363l173 363h122v-69q-31 0 -49.5 -9.5t-32.5 -38.5l-110 -244q24 -3 47 -14t40.5 -28.5t28.5 -40t11 -47.5v-233q0 -23 16 -39t39 -16h14v-69h-109q-26 0 -48.5 10t-39 26.5t-26.5 39t-10 48.5v237
q0 11 -2.5 22t-7.5 20.5t-14 16t-21 7.5h-21v-427z" />
    <glyph glyph-name="afii10029" unicode="&#x41b;" horiz-adv-x="540" 
d="M459 124q0 -23 16 -39t39 -16v-69h-268v69q23 0 39 16t16 39v607h-63l-77 -605q-8 -68 -36 -97t-79 -29h-37v75q20 -3 35.5 7t22.5 42l75 593q6 32 -12 50.5t-41 18.5v62h424v-69q-23 0 -39 -16t-16 -39z" />
    <glyph glyph-name="afii10030" unicode="&#x41c;" horiz-adv-x="640" 
d="M620 0h-212v471l-85 -471h-72l-70 297v-297h-161v69h12q23 0 39 16t16 39v557l-10 42q-6 25 -17 40.5t-40 15.5v69h188l109 -542l86 542h217v-69q-23 0 -39 -16t-16 -39v-600q0 -23 16 -39t39 -16v-69z" />
    <glyph glyph-name="afii10031" unicode="&#x41d;" 
d="M583 0h-222v363h-119v-363h-222v69q23 0 39 16t16 39v600q0 23 -16 39t-39 16v69h222v-330h119v330h222v-69q-22 0 -38 -16t-16 -39v-600q0 -23 16 -39t38 -16v-69z" />
    <glyph glyph-name="afii10032" unicode="&#x41e;" horiz-adv-x="521" 
d="M323 698q0 43 -19.5 62t-43 17t-43 -22.5t-19.5 -56.5v-565q0 -24 10 -40t25.5 -24.5t32.5 -8t31 10t21.5 28t4.5 47.5v552zM491 191q0 -68 -34 -113.5t-85.5 -68t-111 -22t-111 23.5t-85.5 68t-34 112v463q0 70 34 115.5t85.5 67.5t111 20.5t111 -24.5t85.5 -68t34 -111
v-463z" />
    <glyph glyph-name="afii10033" unicode="&#x41f;" 
d="M583 0h-222v780h-118l-1 -780h-222v69q23 0 39 16t16 39v600q0 23 -16 39t-39 16v69h563v-69q-22 0 -38 -16t-16 -39v-600q0 -23 16 -39t38 -16v-69z" />
    <glyph glyph-name="afii10034" unicode="&#x420;" horiz-adv-x="511" 
d="M491 555q0 -31 -12 -58.5t-33 -48.5t-48.5 -33t-58.5 -12h-97v-403h-222v69q23 0 39 16t16 39v600q0 23 -16 39t-39 16v69h319q31 0 58.5 -12t48.5 -32.5t33 -48t12 -58.5v-142zM277 778q-2 0 -12.5 0.5t-22.5 0.5v-303q16 -2 31.5 0.5t27.5 10.5t19 20.5t7 29.5v182
q0 24 -14 39.5t-36 19.5z" />
    <glyph glyph-name="afii10035" unicode="&#x421;" horiz-adv-x="484" 
d="M464 179q0 -66 -32 -108.5t-80.5 -63t-104.5 -19t-104.5 23.5t-80.5 64t-32 103v487q0 66 32 109t80.5 63t104.5 19t104.5 -23t80.5 -64t32 -104v-51h-157v72q0 29 -8 46t-19 25t-21.5 9t-15.5 -2q-12 -3 -20.5 -11.5t-13 -19.5t-6.5 -23.5t-2 -23.5v-556
q0 -38 16.5 -54.5t36.5 -15t36.5 19.5t16.5 50v141h157v-93z" />
    <glyph glyph-name="afii10036" unicode="&#x422;" horiz-adv-x="542" 
d="M522 567h-83v128q0 28 -10 47.5t-36 24.5q-2 0 -11 0.5t-20 0.5h-7v-644q0 -23 16 -39t39 -16v-69h-277v69q23 0 39 16t16 39v645h-29q-31 -2 -43.5 -23t-12.5 -51v-128h-83v281h502v-281z" />
    <glyph glyph-name="afii10037" unicode="&#x423;" horiz-adv-x="538" 
d="M333 126q-14 -68 -48.5 -97t-85.5 -29h-48v73q28 -4 51.5 9t35.5 48l7 29q-7 25 -20.5 72t-29.5 104t-33 118.5t-32 115.5t-26.5 94.5t-15.5 55.5q-8 29 -26.5 44.5t-50.5 15.5v69h207l101 -373l89 373h120v-69q-26 0 -41 -14t-22 -39z" />
    <glyph glyph-name="afii10038" unicode="&#x424;" horiz-adv-x="713" 
d="M274 126h-95q-31 0 -58.5 12t-48.5 33t-33 48.5t-12 58.5v294q0 31 12 58.5t33 48.5t48.5 33t58.5 12h95q0 23 -16 39t-39 16v69h277v-69q-23 0 -39 -16t-16 -39v-1h95q31 0 58.5 -12t48.5 -33t33 -48.5t12 -58.5v-294q0 -31 -12 -58.5t-33 -48.5t-48.5 -33t-58.5 -12
h-95v-1q0 -23 16 -39t39 -16v-69h-277v69q23 0 39 16t16 39v2zM474 200q17 4 33.5 18t16.5 41v334q0 28 -16.5 42t-35.5 17h-9.5t-21.5 1v-455q14 1 22.5 1t10.5 1zM241 201q2 -1 10.5 -1t22.5 -1v455q-14 -1 -21.5 -1h-9.5q-19 -3 -35.5 -17t-16.5 -42v-334q0 -27 16.5 -41
t33.5 -18z" />
    <glyph glyph-name="afii10039" unicode="&#x425;" horiz-adv-x="554" 
d="M511 779q-62 0 -82 -56l-89 -246l107 -347q9 -31 32 -46t55 -15v-69h-217l-76 248l-93 -248h-128v69q27 0 46.5 16t28.5 40l101 269l-99 324q-9 29 -27 45t-50 16v69h206l71 -233l86 233h128v-69z" />
    <glyph glyph-name="afii10040" unicode="&#x426;" horiz-adv-x="630" 
d="M530 68l86 1v-235h-83v91q0 34 -24.5 54.5t-63.5 20.5h-425v69q23 0 39 16t16 39v600q0 23 -16 39t-39 16v69h222l1 -780h118v780h222v-69q-22 0 -38 -16t-16 -39z" />
    <glyph glyph-name="afii10041" unicode="&#x427;" horiz-adv-x="579" 
d="M337 124v282q-44 -9 -90.5 -3t-84.5 27t-62 56.5t-24 85.5v152q0 23 -16 39t-39 16v69h222v-330q1 -23 15 -36t30.5 -14t31 10.5t17.5 37.5v332h222v-69q-22 0 -38 -16t-16 -39v-600q0 -23 16 -39t39 -16v-69h-278v69q23 0 39 16t16 39z" />
    <glyph glyph-name="afii10042" unicode="&#x428;" horiz-adv-x="896" 
d="M816 124q0 -23 16 -39t39 -16v-69h-851v69q23 0 39 16t16 39v600q0 23 -16 39t-39 16v69h222l1 -780h118v780h168v-780h118v780h222v-69q-22 0 -38 -16t-16 -39l1 -600v0z" />
    <glyph glyph-name="afii10043" unicode="&#x429;" horiz-adv-x="923" 
d="M20 0v69q23 0 39 16t16 39v600q0 23 -16 39t-39 16v69h222l1 -780h118v780h168v-780h118v780h222v-69q-22 0 -38 -16t-16 -39l1 -656l86 1v-235h-83v85q0 34 -23.5 57.5t-57.5 23.5h-718z" />
    <glyph glyph-name="afii10044" unicode="&#x42a;" horiz-adv-x="664" 
d="M396 411q-2 0 -11.5 0.5t-21.5 0.5h-3v-343h32q28 0 47.5 19.5t19.5 46.5v211q0 30 -18.5 46t-44.5 19zM415 848v-69q-23 0 -39 -16t-16 -39v-242h2h87q38 0 72 -15t59 -41t39.5 -60t14.5 -72v-110q0 -38 -14.5 -71.5t-39.5 -58.5t-59 -39.5t-72 -14.5h-311v69
q23 0 39 16t16 39v645h-29q-31 -2 -43.5 -23t-12.5 -51v-128h-83v281h390z" />
    <glyph glyph-name="afii10045" unicode="&#x42b;" horiz-adv-x="859" 
d="M278 411q-2 0 -11.5 0.5t-21.5 0.5h-3v-343h32q28 0 47.5 19.5t19.5 46.5v211q0 30 -18.5 46t-44.5 19zM242 724v-242h2h87q38 0 72 -15t59 -41t39.5 -60t14.5 -72v-110q0 -38 -14.5 -71.5t-39.5 -58.5t-59 -39.5t-72 -14.5h-311v69q23 0 39 16t16 39v600q0 23 -16 39
t-39 16v69h277v-69q-23 0 -39 -16t-16 -39zM832 0h-277v69q23 0 39 16t16 39v600q0 23 -16 39t-39 16v69h277v-69q-23 0 -39 -16t-16 -39v-600q0 -23 16 -39t39 -16v-69z" />
    <glyph glyph-name="afii10046" unicode="&#x42c;" horiz-adv-x="546" 
d="M278 411q-2 0 -11.5 0.5t-21.5 0.5h-3v-343h32q28 0 47.5 19.5t19.5 46.5v211q0 30 -18.5 46t-44.5 19zM242 724v-242h2h87q38 0 72 -15t59 -41t39.5 -60t14.5 -72v-110q0 -38 -14.5 -71.5t-39.5 -58.5t-59 -39.5t-72 -14.5h-311v69q23 0 39 16t16 39v600q0 23 -16 39
t-39 16v69h277v-69q-23 0 -39 -16t-16 -39z" />
    <glyph glyph-name="afii10047" unicode="&#x42d;" horiz-adv-x="484" 
d="M30 272h157v-146q0 -32 16.5 -49t36.5 -17t36.5 18t16.5 56v223h-159v152h159v194q0 37 -16.5 57t-36.5 21t-36.5 -18t-16.5 -60v-88h-157v51q0 46 17.5 81t46.5 59t66.5 37t78.5 14t81 -10t72 -35t52 -60.5t20 -85.5v-487q0 -61 -32 -103t-80.5 -64t-104.5 -23.5
t-104.5 19t-80.5 63t-32 108.5v93z" />
    <glyph glyph-name="afii10048" unicode="&#x42e;" horiz-adv-x="795" 
d="M764 191q0 -69 -34 -114t-85.5 -67.5t-111 -22t-111 23.5t-85.5 68t-34 112v172h-61v-363h-222v69q23 0 39 16t16 39v600q0 23 -16 39t-39 16v69h222v-330h61v136q0 70 34 115.5t85.5 67.5t111 20.5t111 -24.5t85.5 -68t34 -111v-463zM596 688q0 43 -19.5 63.5t-43 20.5
t-43 -19t-19.5 -55v-565q0 -36 21 -54.5t46 -18t43.5 21t14.5 64.5v542z" />
    <glyph glyph-name="afii10049" unicode="&#x42f;" horiz-adv-x="597" 
d="M19 69h14q23 0 39 16t16 39v205q0 37 21.5 66.5t52.5 46.5q-29 22 -46.5 54.5t-17.5 69.5v131q0 31 12 58.5t33 48t48.5 32.5t58.5 12h326v-69q-23 0 -39 -16t-16 -39v-600q0 -23 16 -39t39 -16v-69h-222v414h-36q-17 0 -29.5 -7.5t-20.5 -19.5t-12 -27.5t-4 -30.5v-205
q0 -26 -10 -48.5t-26.5 -39t-39.5 -26.5t-48 -10h-109v69zM280 761q-18 -17 -18 -42v-175q0 -24 17 -37.5t38 -17.5q2 0 12 -0.5t21 -0.5h4v291h-31q-25 0 -43 -18z" />
    <glyph glyph-name="afii10065" unicode="&#x430;" horiz-adv-x="602" 
d="M582 0h-205l-29 136h-172l-28 -136h-128v69q29 0 44 14t21 41l131 629q-6 17 -17 21q-14 5 -34 5h-14v69h213l153 -723q6 -28 21 -42t44 -14v-69zM205 275h113l-57 268z" />
    <glyph glyph-name="afii10066" unicode="&#x431;" horiz-adv-x="546" 
d="M278 411q-2 0 -11.5 0.5t-21.5 0.5h-3v-343h32q28 0 47.5 19.5t19.5 46.5v211q0 30 -18.5 46t-44.5 19zM242 779v-297h2h87q38 0 72 -15t59 -41t39.5 -60t14.5 -72v-110q0 -38 -14.5 -71.5t-39.5 -58.5t-59 -39.5t-72 -14.5h-311v69q23 0 39 16t16 39v600q0 23 -16 39
t-39 16v69h469v-235h-83v85q0 34 -23.5 57.5t-57.5 23.5h-83z" />
    <glyph glyph-name="afii10067" unicode="&#x432;" horiz-adv-x="546" 
d="M516 184q0 -38 -14.5 -71.5t-39.5 -58.5t-59 -39.5t-72 -14.5h-311v69q23 0 39 16t16 39v600q0 23 -16 39t-39 16v69h307q36 0 67.5 -13.5t55.5 -37.5t37.5 -55.5t13.5 -67.5v-87q0 -41 -18 -77.5t-50 -60.5q38 -26 60.5 -67t22.5 -88v-110zM274 69q28 0 47.5 19.5
t19.5 46.5v211q0 30 -18.5 46t-44.5 19q-2 0 -11.5 0.5t-21.5 0.5h-3v-343h32zM244 482q12 0 21 0.5t11 0.5q25 4 41.5 21.5t16.5 44.5v163q0 26 -15.5 43.5t-39.5 22.5q-2 0 -11.5 0.5t-21.5 0.5h-4v-297h2z" />
    <glyph glyph-name="afii10068" unicode="&#x433;" horiz-adv-x="456" 
d="M436 613h-83v85q0 34 -23.5 57.5t-57.5 23.5h-30v-779h-222v69q23 0 39 16t16 39v600q0 23 -16 39t-39 16v69h416v-235z" />
    <glyph glyph-name="afii10069" unicode="&#x434;" horiz-adv-x="545" 
d="M532 69v-235h-83v91q0 34 -24.5 54.5t-63.5 20.5h-185q-39 0 -63.5 -20.5t-24.5 -54.5v-91h-83v235h56l78 662q0 23 -15.5 39t-38.5 16v62h428v-69q-23 0 -39 -16t-16 -39v-655h74zM301 731h-67l-79 -662h146v662z" />
    <glyph glyph-name="afii10070" unicode="&#x435;" horiz-adv-x="463" 
d="M436 613h-83v85q0 34 -23.5 57.5t-57.5 23.5h-30v-270h164v-152h-164v-288h30q34 0 57.5 23.5t23.5 57.5v110h90v-260h-423v69q23 0 39 16t16 39v600q0 23 -16 39t-39 16v69h416v-235z" />
    <glyph glyph-name="afii10072" unicode="&#x436;" horiz-adv-x="801" 
d="M315 427h-20q-12 -1 -21 -7.5t-14 -16t-7.5 -21t-2.5 -21.5v-237q0 -26 -10 -48.5t-26.5 -39t-39.5 -26.5t-48 -10h-109v69h14q23 0 39 16t16 39v233q0 25 11 47.5t28.5 40t40.5 28.5t47 14l-110 244q-14 29 -32.5 38.5t-49.5 9.5v69h122l173 -363v239q0 23 -16.5 39
t-39.5 16v69h272v-69q-23 0 -36 -16t-13 -39l-1 -239l173 363h122v-69q-31 0 -49.5 -9.5t-32.5 -38.5l-110 -244q24 -3 47 -14t40.5 -28.5t28.5 -40t11 -47.5v-233q0 -23 16 -39t39 -16h14v-69h-109q-26 0 -48.5 10t-39 26.5t-26.5 39t-10 48.5v237q0 10 -2.5 21.5t-7.5 21
t-14 16t-21 7.5h-21l1 -303q0 -23 13 -39t36 -16v-69h-272v69q23 0 39 16t16 39v303z" />
    <glyph glyph-name="afii10073" unicode="&#x437;" horiz-adv-x="505" 
d="M286 328q0 42 -18 61.5t-46 19.5h-59v81h59q28 0 44.5 21.5t16.5 48.5v169q0 15 -3.5 27.5t-17.5 19.5q-4 1 -18 2t-22 -4q-11 -8 -17.5 -20t-6.5 -25v-133h-150v118q0 30 13 57t38 47t61 31.5t83 11.5q53 0 92.5 -13t65.5 -35.5t39 -52t13 -63.5v-103q0 -42 -19.5 -78.5
t-54.5 -59.5q45 -24 70.5 -67.5t25.5 -94.5v-117q0 -38 -15.5 -71.5t-45.5 -58t-73.5 -39t-100.5 -14.5q-50 0 -89 13.5t-66 36.5t-41 54t-14 66v108h160v-153q0 -22 13.5 -35.5t35.5 -13.5q20 0 33.5 13.5t13.5 35.5v209z" />
    <glyph glyph-name="afii10074" unicode="&#x438;" 
d="M242 0h-222v69q23 0 39 16t16 39v600q0 23 -16 39t-39 16v69h222v-475l119 474v1l1 3l6 -3h215v-69q-22 0 -38 -16t-16 -39v-600q0 -23 16 -39t38 -16v-69h-222v472l-119 -471v-1z" />
    <glyph glyph-name="afii10075" unicode="&#x439;" 
d="M242 0h-222v69q23 0 39 16t16 39v600q0 23 -16 39t-39 16v69h222v-475l119 474v1l1 3l6 -3h215v-69q-22 0 -38 -16t-16 -39v-600q0 -23 16 -39t38 -16v-69h-222v472l-119 -471v-1zM444 1039q0 -31 -10 -57.5t-28 -46t-44 -30.5t-57 -11q-32 0 -57.5 11t-43.5 30.5t-28 46
t-10 57.5h64q3 -30 24.5 -46.5t47 -18t49 14t31.5 50.5h62z" />
    <glyph glyph-name="afii10076" unicode="&#x43a;" horiz-adv-x="561" 
d="M242 0h-222v69q23 0 39 16t16 39v600q0 23 -16 39t-39 16v69h222v-363l173 363h122v-69q-31 0 -49.5 -9.5t-32.5 -38.5l-110 -244q24 -3 47 -14t40.5 -28.5t28.5 -40t11 -47.5v-233q0 -23 16 -39t39 -16h14v-69h-109q-26 0 -48.5 10t-39 26.5t-26.5 39t-10 48.5v237
q0 11 -2.5 22t-7.5 20.5t-14 16t-21 7.5h-21v-427z" />
    <glyph glyph-name="afii10077" unicode="&#x43b;" horiz-adv-x="540" 
d="M459 124q0 -23 16 -39t39 -16v-69h-268v69q23 0 39 16t16 39v607h-63l-77 -605q-8 -68 -36 -97t-79 -29h-37v75q20 -3 35.5 7t22.5 42l75 593q6 32 -12 50.5t-41 18.5v62h424v-69q-23 0 -39 -16t-16 -39z" />
    <glyph glyph-name="afii10078" unicode="&#x43c;" horiz-adv-x="640" 
d="M620 0h-212v471l-85 -471h-72l-70 297v-297h-161v69h12q23 0 39 16t16 39v557l-10 42q-6 25 -17 40.5t-40 15.5v69h188l109 -542l86 542h217v-69q-23 0 -39 -16t-16 -39v-600q0 -23 16 -39t39 -16v-69z" />
    <glyph glyph-name="afii10079" unicode="&#x43d;" 
d="M583 0h-222v363h-119v-363h-222v69q23 0 39 16t16 39v600q0 23 -16 39t-39 16v69h222v-330h119v330h222v-69q-22 0 -38 -16t-16 -39v-600q0 -23 16 -39t38 -16v-69z" />
    <glyph glyph-name="afii10080" unicode="&#x43e;" horiz-adv-x="521" 
d="M323 698q0 43 -19.5 62t-43 17t-43 -22.5t-19.5 -56.5v-565q0 -24 10 -40t25.5 -24.5t32.5 -8t31 10t21.5 28t4.5 47.5v552zM491 191q0 -68 -34 -113.5t-85.5 -68t-111 -22t-111 23.5t-85.5 68t-34 112v463q0 70 34 115.5t85.5 67.5t111 20.5t111 -24.5t85.5 -68t34 -111
v-463z" />
    <glyph glyph-name="afii10081" unicode="&#x43f;" 
d="M583 0h-222v780h-118l-1 -780h-222v69q23 0 39 16t16 39v600q0 23 -16 39t-39 16v69h563v-69q-22 0 -38 -16t-16 -39v-600q0 -23 16 -39t38 -16v-69z" />
    <glyph glyph-name="afii10082" unicode="&#x440;" horiz-adv-x="511" 
d="M491 555q0 -31 -12 -58.5t-33 -48.5t-48.5 -33t-58.5 -12h-97v-403h-222v69q23 0 39 16t16 39v600q0 23 -16 39t-39 16v69h319q31 0 58.5 -12t48.5 -32.5t33 -48t12 -58.5v-142zM277 778q-2 0 -12.5 0.5t-22.5 0.5v-303q16 -2 31.5 0.5t27.5 10.5t19 20.5t7 29.5v182
q0 24 -14 39.5t-36 19.5z" />
    <glyph glyph-name="afii10083" unicode="&#x441;" horiz-adv-x="484" 
d="M464 179q0 -66 -32 -108.5t-80.5 -63t-104.5 -19t-104.5 23.5t-80.5 64t-32 103v487q0 66 32 109t80.5 63t104.5 19t104.5 -23t80.5 -64t32 -104v-51h-157v72q0 29 -8 46t-19 25t-21.5 9t-15.5 -2q-12 -3 -20.5 -11.5t-13 -19.5t-6.5 -23.5t-2 -23.5v-556
q0 -38 16.5 -54.5t36.5 -15t36.5 19.5t16.5 50v141h157v-93z" />
    <glyph glyph-name="afii10084" unicode="&#x442;" horiz-adv-x="542" 
d="M522 567h-83v128q0 28 -10 47.5t-36 24.5q-2 0 -11 0.5t-20 0.5h-7v-644q0 -23 16 -39t39 -16v-69h-277v69q23 0 39 16t16 39v645h-29q-31 -2 -43.5 -23t-12.5 -51v-128h-83v281h502v-281z" />
    <glyph glyph-name="afii10085" unicode="&#x443;" horiz-adv-x="538" 
d="M333 126q-14 -68 -48.5 -97t-85.5 -29h-48v73q28 -4 51.5 9t35.5 48l7 29q-7 25 -20.5 72t-29.5 104t-33 118.5t-32 115.5t-26.5 94.5t-15.5 55.5q-8 29 -26.5 44.5t-50.5 15.5v69h207l101 -373l89 373h120v-69q-26 0 -41 -14t-22 -39z" />
    <glyph glyph-name="afii10086" unicode="&#x444;" horiz-adv-x="713" 
d="M274 126h-95q-31 0 -58.5 12t-48.5 33t-33 48.5t-12 58.5v294q0 31 12 58.5t33 48.5t48.5 33t58.5 12h95q0 23 -16 39t-39 16v69h277v-69q-23 0 -39 -16t-16 -39v-1h95q31 0 58.5 -12t48.5 -33t33 -48.5t12 -58.5v-294q0 -31 -12 -58.5t-33 -48.5t-48.5 -33t-58.5 -12
h-95v-1q0 -23 16 -39t39 -16v-69h-277v69q23 0 39 16t16 39v2zM474 200q17 4 33.5 18t16.5 41v334q0 28 -16.5 42t-35.5 17h-9.5t-21.5 1v-455q14 1 22.5 1t10.5 1zM241 201q2 -1 10.5 -1t22.5 -1v455q-14 -1 -21.5 -1h-9.5q-19 -3 -35.5 -17t-16.5 -42v-334q0 -27 16.5 -41
t33.5 -18z" />
    <glyph glyph-name="afii10087" unicode="&#x445;" horiz-adv-x="554" 
d="M511 779q-62 0 -82 -56l-89 -246l107 -347q9 -31 32 -46t55 -15v-69h-217l-76 248l-93 -248h-128v69q27 0 46.5 16t28.5 40l101 269l-99 324q-9 29 -27 45t-50 16v69h206l71 -233l86 233h128v-69z" />
    <glyph glyph-name="afii10088" unicode="&#x446;" horiz-adv-x="630" 
d="M530 68l86 1v-235h-83v91q0 34 -24.5 54.5t-63.5 20.5h-425v69q23 0 39 16t16 39v600q0 23 -16 39t-39 16v69h222l1 -780h118v780h222v-69q-22 0 -38 -16t-16 -39z" />
    <glyph glyph-name="afii10089" unicode="&#x447;" horiz-adv-x="579" 
d="M337 124v282q-44 -9 -90.5 -3t-84.5 27t-62 56.5t-24 85.5v152q0 23 -16 39t-39 16v69h222v-330q1 -23 15 -36t30.5 -14t31 10.5t17.5 37.5v332h222v-69q-22 0 -38 -16t-16 -39v-600q0 -23 16 -39t39 -16v-69h-278v69q23 0 39 16t16 39z" />
    <glyph glyph-name="afii10090" unicode="&#x448;" horiz-adv-x="896" 
d="M816 124q0 -23 16 -39t39 -16v-69h-851v69q23 0 39 16t16 39v600q0 23 -16 39t-39 16v69h222l1 -780h118v780h168v-780h118v780h222v-69q-22 0 -38 -16t-16 -39l1 -600v0z" />
    <glyph glyph-name="afii10091" unicode="&#x449;" horiz-adv-x="923" 
d="M20 0v69q23 0 39 16t16 39v600q0 23 -16 39t-39 16v69h222l1 -780h118v780h168v-780h118v780h222v-69q-22 0 -38 -16t-16 -39l1 -656l86 1v-235h-83v85q0 34 -23.5 57.5t-57.5 23.5h-718z" />
    <glyph glyph-name="afii10092" unicode="&#x44a;" horiz-adv-x="664" 
d="M396 411q-2 0 -11.5 0.5t-21.5 0.5h-3v-343h32q28 0 47.5 19.5t19.5 46.5v211q0 30 -18.5 46t-44.5 19zM415 848v-69q-23 0 -39 -16t-16 -39v-242h2h87q38 0 72 -15t59 -41t39.5 -60t14.5 -72v-110q0 -38 -14.5 -71.5t-39.5 -58.5t-59 -39.5t-72 -14.5h-311v69
q23 0 39 16t16 39v645h-29q-31 -2 -43.5 -23t-12.5 -51v-128h-83v281h390z" />
    <glyph glyph-name="afii10093" unicode="&#x44b;" horiz-adv-x="859" 
d="M278 411q-2 0 -11.5 0.5t-21.5 0.5h-3v-343h32q28 0 47.5 19.5t19.5 46.5v211q0 30 -18.5 46t-44.5 19zM242 724v-242h2h87q38 0 72 -15t59 -41t39.5 -60t14.5 -72v-110q0 -38 -14.5 -71.5t-39.5 -58.5t-59 -39.5t-72 -14.5h-311v69q23 0 39 16t16 39v600q0 23 -16 39
t-39 16v69h277v-69q-23 0 -39 -16t-16 -39zM832 0h-277v69q23 0 39 16t16 39v600q0 23 -16 39t-39 16v69h277v-69q-23 0 -39 -16t-16 -39v-600q0 -23 16 -39t39 -16v-69z" />
    <glyph glyph-name="afii10094" unicode="&#x44c;" horiz-adv-x="546" 
d="M278 411q-2 0 -11.5 0.5t-21.5 0.5h-3v-343h32q28 0 47.5 19.5t19.5 46.5v211q0 30 -18.5 46t-44.5 19zM242 724v-242h2h87q38 0 72 -15t59 -41t39.5 -60t14.5 -72v-110q0 -38 -14.5 -71.5t-39.5 -58.5t-59 -39.5t-72 -14.5h-311v69q23 0 39 16t16 39v600q0 23 -16 39
t-39 16v69h277v-69q-23 0 -39 -16t-16 -39z" />
    <glyph glyph-name="afii10095" unicode="&#x44d;" horiz-adv-x="484" 
d="M30 272h157v-146q0 -32 16.5 -49t36.5 -17t36.5 18t16.5 56v223h-159v152h159v194q0 37 -16.5 57t-36.5 21t-36.5 -18t-16.5 -60v-88h-157v51q0 46 17.5 81t46.5 59t66.5 37t78.5 14t81 -10t72 -35t52 -60.5t20 -85.5v-487q0 -61 -32 -103t-80.5 -64t-104.5 -23.5
t-104.5 19t-80.5 63t-32 108.5v93z" />
    <glyph glyph-name="afii10096" unicode="&#x44e;" horiz-adv-x="795" 
d="M764 191q0 -69 -34 -114t-85.5 -67.5t-111 -22t-111 23.5t-85.5 68t-34 112v172h-61v-363h-222v69q23 0 39 16t16 39v600q0 23 -16 39t-39 16v69h222v-330h61v136q0 70 34 115.5t85.5 67.5t111 20.5t111 -24.5t85.5 -68t34 -111v-463zM596 688q0 43 -19.5 63.5t-43 20.5
t-43 -19t-19.5 -55v-565q0 -36 21 -54.5t46 -18t43.5 21t14.5 64.5v542z" />
    <glyph glyph-name="afii10097" unicode="&#x44f;" horiz-adv-x="597" 
d="M19 69h14q23 0 39 16t16 39v205q0 37 21.5 66.5t52.5 46.5q-29 22 -46.5 54.5t-17.5 69.5v131q0 31 12 58.5t33 48t48.5 32.5t58.5 12h326v-69q-23 0 -39 -16t-16 -39v-600q0 -23 16 -39t39 -16v-69h-222v414h-36q-17 0 -29.5 -7.5t-20.5 -19.5t-12 -27.5t-4 -30.5v-205
q0 -26 -10 -48.5t-26.5 -39t-39.5 -26.5t-48 -10h-109v69zM280 761q-18 -17 -18 -42v-175q0 -24 17 -37.5t38 -17.5q2 0 12 -0.5t21 -0.5h4v291h-31q-25 0 -43 -18z" />
    <glyph glyph-name="afii10071" unicode="&#x451;" horiz-adv-x="463" 
d="M219 940q0 -20 -13.5 -34t-33.5 -14t-34 14t-14 34t14 33.5t34 13.5t33.5 -13.5t13.5 -33.5zM339 940q0 -20 -13.5 -34t-33.5 -14t-34 14t-14 34t14 33.5t34 13.5t33.5 -13.5t13.5 -33.5zM436 613h-83v85q0 34 -23.5 57.5t-57.5 23.5h-30v-270h164v-152h-164v-288h30
q34 0 57.5 23.5t23.5 57.5v110h90v-260h-423v69q23 0 39 16t16 39v600q0 23 -16 39t-39 16v69h416v-235z" />
    <glyph glyph-name="afii10101" unicode="&#x454;" horiz-adv-x="484" 
d="M464 179q0 -66 -32 -108.5t-80.5 -63t-104.5 -19t-104.5 23.5t-80.5 64t-32 103v487q0 49 20 85.5t52 60.5t72 35t81 10q40 -1 78 -14t67 -37t46.5 -59t17.5 -81v-51h-157v88q0 41 -16.5 60t-36.5 18t-36.5 -21t-16.5 -57v-194h159v-152h-159v-223q0 -38 16.5 -56
t36.5 -18t36.5 17t16.5 49v146h157v-93z" />
    <glyph glyph-name="afii10103" unicode="&#x456;" horiz-adv-x="317" 
d="M297 0h-277v69q23 0 39 16t16 39v600q0 23 -16 39t-39 16v69h277v-69q-23 0 -39 -16t-16 -39v-600q0 -23 16 -39t39 -16v-69z" />
    <glyph glyph-name="afii10104" unicode="&#x457;" horiz-adv-x="317" 
d="M297 0h-277v69q23 0 39 16t16 39v600q0 23 -16 39t-39 16v69h277v-69q-23 0 -39 -16t-16 -39v-600q0 -23 16 -39t39 -16v-69zM146 938q0 -20 -13.5 -34t-33.5 -14t-34 14t-14 34t14 33.5t34 13.5t33.5 -13.5t13.5 -33.5zM266 938q0 -20 -13.5 -34t-33.5 -14t-34 14
t-14 34t14 33.5t34 13.5t33.5 -13.5t13.5 -33.5z" />
    <glyph glyph-name="afii10110" unicode="&#x45e;" horiz-adv-x="538" 
d="M333 126q-14 -68 -48.5 -97t-85.5 -29h-48v73q28 -4 51.5 9t35.5 48l7 29q-7 25 -20.5 72t-29.5 104t-33 118.5t-32 115.5t-26.5 94.5t-15.5 55.5q-8 29 -26.5 44.5t-50.5 15.5v69h207l101 -373l89 373h120v-69q-26 0 -41 -14t-22 -39zM431 1039q0 -31 -10 -57.5t-28 -46
t-44 -30.5t-57 -11q-32 0 -57.5 11t-43.5 30.5t-28 46t-10 57.5h64q3 -30 24.5 -46.5t47 -18t49 14t31.5 50.5h62z" />
    <glyph glyph-name="afii10146" unicode="&#x462;" horiz-adv-x="823" 
d="M564 411q-2 0 -11.5 0.5t-21.5 0.5h-3v-343h32q28 0 47.5 19.5t19.5 46.5v211q0 30 -18.5 46t-44.5 19zM528 724v-242h2h87q38 0 72 -15t59 -41t39.5 -60t14.5 -72v-110q0 -38 -14.5 -71.5t-39.5 -58.5t-59 -39.5t-72 -14.5h-311v69q23 0 39 16t16 39v656h-118l-1 -780
h-222v69q23 0 39 16t16 39v600q0 23 -16 39t-39 16v69h563v-69q-22 0 -38 -16t-17 -39z" />
    <glyph glyph-name="afii10194" unicode="&#x463;" horiz-adv-x="659" 
d="M364 651h-9v-169h89q38 0 72 -15t59 -41t39.5 -60t14.5 -72v-110q0 -38 -14.5 -71.5t-39.5 -58.5t-59 -39.5t-72 -14.5h-311v69q23 0 39 16t16 39v528h-27q-31 -2 -43.5 -23t-12.5 -51v-49h-83v202h165q-2 18 -15 32q-16 16 -39 16v69h277v-69q-23 0 -39 -16
q-14 -14 -16 -32h169v-202h-83v49q0 28 -10 47.5t-36 24.5q-2 0 -11 0.5t-20 0.5zM391 411q-2 0 -11.5 0.5t-21.5 0.5h-3v-343h32q28 0 47.5 19.5t19.5 46.5v211q0 30 -18.5 46t-44.5 19z" />
    <glyph glyph-name="afii10147" unicode="&#x472;" horiz-adv-x="521" 
d="M491 191q0 -68 -34 -113.5t-85.5 -68t-111 -22t-111 23.5t-85.5 68t-34 112v463q0 70 34 115.5t85.5 67.5t111 20.5t111 -24.5t85.5 -68t34 -111v-463zM208 93q10 -16 25.5 -24.5t32.5 -8t31 10t21.5 28t4.5 47.5v203h-125v-216q0 -24 10 -40zM323 698q0 43 -19.5 62
t-43 17t-43 -22.5t-19.5 -56.5v-194h125v194z" />
    <glyph glyph-name="afii10195" unicode="&#x473;" horiz-adv-x="521" 
d="M491 191q0 -68 -34 -113.5t-85.5 -68t-111 -22t-111 23.5t-85.5 68t-34 112v463q0 70 34 115.5t85.5 67.5t111 20.5t111 -24.5t85.5 -68t34 -111v-463zM208 93q10 -16 25.5 -24.5t32.5 -8t31 10t21.5 28t4.5 47.5v203h-125v-216q0 -24 10 -40zM323 698q0 43 -19.5 62
t-43 17t-43 -22.5t-19.5 -56.5v-194h125v194z" />
    <glyph glyph-name="afii10050" unicode="&#x490;" horiz-adv-x="456" 
d="M353 848v120h83v-189h-194v-779h-222v69q23 0 39 16t16 39v600q0 23 -16 39t-39 16v69h333z" />
    <glyph glyph-name="afii10098" unicode="&#x491;" horiz-adv-x="456" 
d="M353 848v120h83v-189h-194v-779h-222v69q23 0 39 16t16 39v600q0 23 -16 39t-39 16v69h333z" />
    <glyph glyph-name="endash" unicode="&#x2013;" horiz-adv-x="495" 
d="M475 329h-455v124h455v-124z" />
    <glyph glyph-name="emdash" unicode="&#x2014;" horiz-adv-x="695" 
d="M675 329h-655v124h655v-124z" />
    <glyph glyph-name="quoteleft" unicode="&#x2018;" horiz-adv-x="232" 
d="M212 862l-35 -267q-4 -31 -27.5 -50t-54.5 -19q-34 0 -54.5 22t-20.5 56q0 17 6.5 32t14.5 30l100 196h71z" />
    <glyph glyph-name="quoteright" unicode="&#x2019;" horiz-adv-x="232" 
d="M212 784q0 -17 -6.5 -32t-14.5 -30l-99 -196h-72l35 267q5 31 28.5 50t53.5 19q35 0 55 -22t20 -56z" />
    <glyph glyph-name="quotedblleft" unicode="&#x201c;" horiz-adv-x="425" 
d="M212 862l-35 -267q-4 -31 -27.5 -50t-54.5 -19q-34 0 -54.5 22t-20.5 56q0 17 6.5 32t14.5 30l100 196h71zM405 862l-35 -267q-4 -31 -27.5 -50t-54.5 -19q-34 0 -54.5 22t-20.5 56q0 17 6.5 32t14.5 30l99 196h72z" />
    <glyph glyph-name="quotedblright" unicode="&#x201d;" horiz-adv-x="425" 
d="M212 784q0 -17 -6.5 -32t-14.5 -30l-99 -196h-72l35 267q5 31 28.5 50t53.5 19q35 0 55 -22t20 -56zM405 784q0 -17 -6.5 -32t-14.5 -30l-99 -196h-72l35 267q4 31 28 50t54 19q35 0 55 -22t20 -56z" />
    <glyph glyph-name="bullet" unicode="&#x2022;" horiz-adv-x="423" 
d="M201 233q-38 2 -71 18t-57.5 41.5t-38.5 59.5t-14 72t14 72t38.5 59.5t57.5 41.5t71 18v-382zM403 424q0 -38 -14 -72t-38.5 -59.5t-57.5 -41.5t-71 -18v382q38 -2 71 -18t57.5 -41.5t38.5 -59.5t14 -72z" />
    <glyph glyph-name="afii61352" unicode="&#x2116;" horiz-adv-x="890" 
d="M568 779h-12q-23 0 -35.5 -16.5t-12.5 -38.5v-724h-97l-224 503l1 -503h-168v69h19q23 0 39 16t16 39v588l-4 9q-11 25 -25 41.5t-45 16.5v69h194l200 -444v444h154v-69zM707 760q0 14 9.5 22t21.5 8t21.5 -7t9.5 -23v-275q0 -16 -9.5 -23t-21.5 -7t-21.5 8t-9.5 22v275z
M612 509q0 -39 18.5 -64t46.5 -37.5t60.5 -12t60.5 13t46.5 38t18.5 62.5v227q0 37 -18.5 61.5t-46.5 36.5t-60.5 11.5t-60.5 -14t-46.5 -39.5t-18.5 -64v-219zM834 250h-194v124h194v-124z" />
    </font>
</defs>
</svg>
